<?xml version="1.0" encoding="UTF-8" standalone="no"?><svg xmlns="http://www.w3.org/2000/svg" xmlns:xlink="http://www.w3.org/1999/xlink" clip-rule="evenodd" stroke-miterlimit="10" viewBox="0 0 1920 1080"><desc>SVG generated by Keynote</desc><defs></defs><g transform="matrix(1.00, 0.00, -0.00, -1.00, 0.0, 1080.0)"><path d="M 0.0 1080.0 L 1920.0 1080.0 L 1920.0 0.0 L 0.0 0.0 Z M 0.0 1080.0 " fill="#212121"></path><text xml:space="preserve" font-family="ThinMintJNL,Thin Mint JNL" font-size="280.0" fill="#EAEAEA" transform="matrix(1.00, 0.00, -0.00, -1.00, 536.2, 429.0)">B</text><text xml:space="preserve" font-family="ThinMintJNL,Thin Mint JNL" font-size="280.0" fill="#EAEAEA" transform="matrix(1.00, 0.00, -0.00, -1.00, 638.7, 429.0)">l</text><text xml:space="preserve" font-family="ThinMintJNL,Thin Mint JNL" font-size="280.0" fill="#EAEAEA" transform="matrix(1.00, 0.00, -0.00, -1.00, 728.6, 429.0)">u</text><text xml:space="preserve" font-family="ThinMintJNL,Thin Mint JNL" font-size="280.0" fill="#EAEAEA" transform="matrix(1.00, 0.00, -0.00, -1.00, 824.1, 429.0)">e</text><text xml:space="preserve" font-family="ThinMintJNL,Thin Mint JNL" font-size="280.0" fill="#EAEAEA" transform="matrix(1.00, 0.00, -0.00, -1.00, 919.3, 429.0)">T</text><text xml:space="preserve" font-family="ThinMintJNL,Thin Mint JNL" font-size="280.0" fill="#EAEAEA" transform="matrix(1.00, 0.00, -0.00, -1.00, 1004.4, 429.0)">o</text><text xml:space="preserve" font-family="ThinMintJNL,Thin Mint JNL" font-size="280.0" fill="#EAEAEA" transform="matrix(1.00, 0.00, -0.00, -1.00, 1099.6, 429.0)">o</text><text xml:space="preserve" font-family="ThinMintJNL,Thin Mint JNL" font-size="280.0" fill="#EAEAEA" transform="matrix(1.00, 0.00, -0.00, -1.00, 1194.8, 429.0)">t</text><text xml:space="preserve" font-family="ThinMintJNL,Thin Mint JNL" font-size="280.0" fill="#EAEAEA" transform="matrix(1.00, 0.00, -0.00, -1.00, 1279.9, 429.0)">h</text><image xlink:href="../../274B85C5-F266-4EEE-AD3C-87B14BCF2436/assets/9BA7865C2B94B5092AE29A5CC57EFC4D.png" width="1024.00" height="1024.00" transform="matrix(0.08, 0.00, -0.00, -0.08, 1012.6, 579.5)"></image><image xlink:href="../../274B85C5-F266-4EEE-AD3C-87B14BCF2436/assets/9BA7865C2B94B5092AE29A5CC57EFC4D.png" width="1024.00" height="1024.00" transform="matrix(0.08, 0.00, -0.00, -0.08, 1108.6, 579.5)"></image><text xml:space="preserve" font-family="Georgia,Georgia" font-size="200.0" fill="#EAEAEA" transform="matrix(1.00, 0.00, -0.00, -1.00, 666.6, 880.3)">W</text><text xml:space="preserve" font-family="Georgia,Georgia" font-size="200.0" fill="#EAEAEA" transform="matrix(1.00, 0.00, -0.00, -1.00, 861.6, 880.3)">O</text><text xml:space="preserve" font-family="Georgia,Georgia" font-size="200.0" fill="#EAEAEA" transform="matrix(1.00, 0.00, -0.00, -1.00, 1010.6, 880.3)">E</text><text xml:space="preserve" font-family="Georgia,Georgia" font-size="200.0" fill="#EAEAEA" transform="matrix(1.00, 0.00, -0.00, -1.00, 1141.4, 880.3)">S</text><text xml:space="preserve" font-family="Georgia,Georgia" font-size="200.0" fill="#EAEAEA" transform="matrix(1.00, 0.00, -0.00, -1.00, 666.6, 672.3)">W</text><text xml:space="preserve" font-family="Georgia,Georgia" font-size="200.0" fill="#EAEAEA" transform="matrix(1.00, 0.00, -0.00, -1.00, 861.6, 672.3)">O</text><text xml:space="preserve" font-family="Georgia,Georgia" font-size="200.0" fill="#EAEAEA" transform="matrix(1.00, 0.00, -0.00, -1.00, 1010.6, 672.3)">E</text><text xml:space="preserve" font-family="Georgia,Georgia" font-size="200.0" fill="#EAEAEA" transform="matrix(1.00, 0.00, -0.00, -1.00, 1141.4, 672.3)">S</text><text xml:space="preserve" font-family="Georgia,Georgia" font-size="200.0" fill="#EAEAEA" transform="matrix(1.00, 0.00, -0.00, -1.00, 666.6, 470.3)">W</text><text xml:space="preserve" font-family="Georgia,Georgia" font-size="200.0" fill="#EAEAEA" transform="matrix(1.00, 0.00, -0.00, -1.00, 861.6, 470.3)">O</text><text xml:space="preserve" font-family="Georgia,Georgia" font-size="200.0" fill="#EAEAEA" transform="matrix(1.00, 0.00, -0.00, -1.00, 1010.6, 470.3)">E</text><text xml:space="preserve" font-family="Georgia,Georgia" font-size="200.0" fill="#EAEAEA" transform="matrix(1.00, 0.00, -0.00, -1.00, 1141.4, 470.3)">S</text></g></svg>