<?xml version="1.0" encoding="UTF-8" standalone="no"?><svg xmlns="http://www.w3.org/2000/svg" xmlns:xlink="http://www.w3.org/1999/xlink" clip-rule="evenodd" stroke-miterlimit="10" viewBox="0 0 1920 1080"><desc>SVG generated by Keynote</desc><defs></defs><g transform="matrix(1.00, 0.00, -0.00, -1.00, 0.0, 1080.0)"><path d="M 0.0 1080.0 L 1920.0 1080.0 L 1920.0 0.0 L 0.0 0.0 Z M 0.0 1080.0 " fill="#212121"></path><text xml:space="preserve" font-family="Georgia,Georgia" font-size="50.0" fill="#FEFFFF" transform="matrix(1.00, 0.00, -0.00, -1.00, 465.0, 850.1)">“</text><text xml:space="preserve" font-family="Georgia,Georgia" font-size="50.0" fill="#FEFFFF" transform="matrix(1.00, 0.00, -0.00, -1.00, 485.5, 850.1)">U</text><text xml:space="preserve" font-family="Georgia,Georgia" font-size="50.0" fill="#FEFFFF" transform="matrix(1.00, 0.00, -0.00, -1.00, 523.4, 850.1)">s</text><text xml:space="preserve" font-family="Georgia,Georgia" font-size="50.0" fill="#FEFFFF" transform="matrix(1.00, 0.00, -0.00, -1.00, 545.0, 850.1)">i</text><text xml:space="preserve" font-family="Georgia,Georgia" font-size="50.0" fill="#FEFFFF" transform="matrix(1.00, 0.00, -0.00, -1.00, 559.6, 850.1)">n</text><text xml:space="preserve" font-family="Georgia,Georgia" font-size="50.0" fill="#FEFFFF" transform="matrix(1.00, 0.00, -0.00, -1.00, 589.1, 850.1)">g</text><text xml:space="preserve" font-family="Georgia,Georgia" font-size="50.0" fill="#FEFFFF" transform="matrix(1.00, 0.00, -0.00, -1.00, 614.6, 850.1)"> </text><text xml:space="preserve" font-family="Georgia,Georgia" font-size="50.0" fill="#FEFFFF" transform="matrix(1.00, 0.00, -0.00, -1.00, 626.7, 850.1)">P</text><text xml:space="preserve" font-family="Georgia,Georgia" font-size="50.0" fill="#FEFFFF" transform="matrix(1.00, 0.00, -0.00, -1.00, 657.2, 850.1)">o</text><text xml:space="preserve" font-family="Georgia,Georgia" font-size="50.0" fill="#FEFFFF" transform="matrix(1.00, 0.00, -0.00, -1.00, 684.1, 850.1)">l</text><text xml:space="preserve" font-family="Georgia,Georgia" font-size="50.0" fill="#FEFFFF" transform="matrix(1.00, 0.00, -0.00, -1.00, 698.5, 850.1)">y</text><text xml:space="preserve" font-family="Georgia,Georgia" font-size="50.0" fill="#FEFFFF" transform="matrix(1.00, 0.00, -0.00, -1.00, 723.1, 850.1)">m</text><text xml:space="preserve" font-family="Georgia,Georgia" font-size="50.0" fill="#FEFFFF" transform="matrix(1.00, 0.00, -0.00, -1.00, 767.1, 850.1)">e</text><text xml:space="preserve" font-family="Georgia,Georgia" font-size="50.0" fill="#FEFFFF" transform="matrix(1.00, 0.00, -0.00, -1.00, 791.3, 850.1)">r</text><text xml:space="preserve" font-family="Georgia,Georgia" font-size="50.0" fill="#FEFFFF" transform="matrix(1.00, 0.00, -0.00, -1.00, 811.8, 850.1)"> </text><text xml:space="preserve" font-family="Georgia,Georgia" font-size="50.0" fill="#FEFFFF" transform="matrix(1.00, 0.00, -0.00, -1.00, 823.8, 850.1)">e</text><text xml:space="preserve" font-family="Georgia,Georgia" font-size="50.0" fill="#FEFFFF" transform="matrix(1.00, 0.00, -0.00, -1.00, 848.0, 850.1)">l</text><text xml:space="preserve" font-family="Georgia,Georgia" font-size="50.0" fill="#FEFFFF" transform="matrix(1.00, 0.00, -0.00, -1.00, 862.3, 850.1)">e</text><text xml:space="preserve" font-family="Georgia,Georgia" font-size="50.0" fill="#FEFFFF" transform="matrix(1.00, 0.00, -0.00, -1.00, 886.5, 850.1)">m</text><text xml:space="preserve" font-family="Georgia,Georgia" font-size="50.0" fill="#FEFFFF" transform="matrix(1.00, 0.00, -0.00, -1.00, 930.6, 850.1)">e</text><text xml:space="preserve" font-family="Georgia,Georgia" font-size="50.0" fill="#FEFFFF" transform="matrix(1.00, 0.00, -0.00, -1.00, 954.8, 850.1)">n</text><text xml:space="preserve" font-family="Georgia,Georgia" font-size="50.0" fill="#FEFFFF" transform="matrix(1.00, 0.00, -0.00, -1.00, 984.3, 850.1)">t</text><text xml:space="preserve" font-family="Georgia,Georgia" font-size="50.0" fill="#FEFFFF" transform="matrix(1.00, 0.00, -0.00, -1.00, 1001.6, 850.1)">s</text><text xml:space="preserve" font-family="Georgia,Georgia" font-size="50.0" fill="#FEFFFF" transform="matrix(1.00, 0.00, -0.00, -1.00, 1023.2, 850.1)"> </text><text xml:space="preserve" font-family="Georgia,Georgia" font-size="50.0" fill="#FEFFFF" transform="matrix(1.00, 0.00, -0.00, -1.00, 1035.2, 850.1)">i</text><text xml:space="preserve" font-family="Georgia,Georgia" font-size="50.0" fill="#FEFFFF" transform="matrix(1.00, 0.00, -0.00, -1.00, 1049.9, 850.1)">s</text><text xml:space="preserve" font-family="Georgia,Georgia" font-size="50.0" fill="#FEFFFF" transform="matrix(1.00, 0.00, -0.00, -1.00, 1071.5, 850.1)"> </text><text xml:space="preserve" font-family="Georgia,Georgia" font-size="50.0" fill="#FEFFFF" transform="matrix(1.00, 0.00, -0.00, -1.00, 1083.6, 850.1)">a</text><text xml:space="preserve" font-family="Georgia,Georgia" font-size="50.0" fill="#FEFFFF" transform="matrix(1.00, 0.00, -0.00, -1.00, 1108.8, 850.1)">b</text><text xml:space="preserve" font-family="Georgia,Georgia" font-size="50.0" fill="#FEFFFF" transform="matrix(1.00, 0.00, -0.00, -1.00, 1136.8, 850.1)">s</text><text xml:space="preserve" font-family="Georgia,Georgia" font-size="50.0" fill="#FEFFFF" transform="matrix(1.00, 0.00, -0.00, -1.00, 1158.4, 850.1)">u</text><text xml:space="preserve" font-family="Georgia,Georgia" font-size="50.0" fill="#FEFFFF" transform="matrix(1.00, 0.00, -0.00, -1.00, 1187.2, 850.1)">r</text><text xml:space="preserve" font-family="Georgia,Georgia" font-size="50.0" fill="#FEFFFF" transform="matrix(1.00, 0.00, -0.00, -1.00, 1207.6, 850.1)">d</text><text xml:space="preserve" font-family="Georgia,Georgia" font-size="50.0" fill="#FEFFFF" transform="matrix(1.00, 0.00, -0.00, -1.00, 1236.3, 850.1)">l</text><text xml:space="preserve" font-family="Georgia,Georgia" font-size="50.0" fill="#FEFFFF" transform="matrix(1.00, 0.00, -0.00, -1.00, 1250.7, 850.1)">y</text><text xml:space="preserve" font-family="Georgia,Georgia" font-size="50.0" fill="#FEFFFF" transform="matrix(1.00, 0.00, -0.00, -1.00, 1275.3, 850.1)"> </text><text xml:space="preserve" font-family="Georgia,Georgia" font-size="50.0" fill="#FEFFFF" transform="matrix(1.00, 0.00, -0.00, -1.00, 1287.3, 850.1)">s</text><text xml:space="preserve" font-family="Georgia,Georgia" font-size="50.0" fill="#FEFFFF" transform="matrix(1.00, 0.00, -0.00, -1.00, 1309.0, 850.1)">i</text><text xml:space="preserve" font-family="Georgia,Georgia" font-size="50.0" fill="#FEFFFF" transform="matrix(1.00, 0.00, -0.00, -1.00, 1323.6, 850.1)">m</text><text xml:space="preserve" font-family="Georgia,Georgia" font-size="50.0" fill="#FEFFFF" transform="matrix(1.00, 0.00, -0.00, -1.00, 1367.6, 850.1)">p</text><text xml:space="preserve" font-family="Georgia,Georgia" font-size="50.0" fill="#FEFFFF" transform="matrix(1.00, 0.00, -0.00, -1.00, 1396.2, 850.1)">l</text><text xml:space="preserve" font-family="Georgia,Georgia" font-size="50.0" fill="#FEFFFF" transform="matrix(1.00, 0.00, -0.00, -1.00, 1410.5, 850.1)">e</text><text xml:space="preserve" font-family="Georgia,Georgia" font-size="50.0" fill="#FEFFFF" transform="matrix(1.00, 0.00, -0.00, -1.00, 1434.7, 850.1)">”</text><text xml:space="preserve" font-family="Georgia,Georgia" font-size="50.0" fill="#FEFFFF" transform="matrix(1.00, 0.00, -0.00, -1.00, 1455.2, 850.1)"> </text><text xml:space="preserve" font-family="Georgia,Georgia" font-size="50.0" fill="#FEFFFF" transform="matrix(1.00, 0.00, -0.00, -1.00, 845.4, 781.7)">–</text><text xml:space="preserve" font-family="Georgia,Georgia" font-size="50.0" fill="#FEFFFF" transform="matrix(1.00, 0.00, -0.00, -1.00, 877.5, 781.7)"> </text><text xml:space="preserve" font-family="Georgia,Georgia" font-size="50.0" fill="#FEFFFF" transform="matrix(1.00, 0.00, -0.00, -1.00, 889.6, 781.7)">P</text><text xml:space="preserve" font-family="Georgia,Georgia" font-size="50.0" fill="#FEFFFF" transform="matrix(1.00, 0.00, -0.00, -1.00, 920.1, 781.7)">o</text><text xml:space="preserve" font-family="Georgia,Georgia" font-size="50.0" fill="#FEFFFF" transform="matrix(1.00, 0.00, -0.00, -1.00, 947.0, 781.7)">l</text><text xml:space="preserve" font-family="Georgia,Georgia" font-size="50.0" fill="#FEFFFF" transform="matrix(1.00, 0.00, -0.00, -1.00, 961.4, 781.7)">y</text><text xml:space="preserve" font-family="Georgia,Georgia" font-size="50.0" fill="#FEFFFF" transform="matrix(1.00, 0.00, -0.00, -1.00, 986.0, 781.7)">m</text><text xml:space="preserve" font-family="Georgia,Georgia" font-size="50.0" fill="#FEFFFF" transform="matrix(1.00, 0.00, -0.00, -1.00, 1030.0, 781.7)">e</text><text xml:space="preserve" font-family="Georgia,Georgia" font-size="50.0" fill="#FEFFFF" transform="matrix(1.00, 0.00, -0.00, -1.00, 1054.2, 781.7)">r</text><text xml:space="preserve" font-family="Georgia,Georgia" font-size="50.0" fill="#FEFFFF" transform="matrix(1.00, 0.00, -0.00, -1.00, 796.4, 557.1)">“</text><text xml:space="preserve" font-family="Georgia,Georgia" font-size="50.0" fill="#FEFFFF" transform="matrix(1.00, 0.00, -0.00, -1.00, 817.0, 557.1)">E</text><text xml:space="preserve" font-family="Georgia,Georgia" font-size="50.0" fill="#FEFFFF" transform="matrix(1.00, 0.00, -0.00, -1.00, 849.6, 557.1)">a</text><text xml:space="preserve" font-family="Georgia,Georgia" font-size="50.0" fill="#FEFFFF" transform="matrix(1.00, 0.00, -0.00, -1.00, 874.8, 557.1)">s</text><text xml:space="preserve" font-family="Georgia,Georgia" font-size="50.0" fill="#FEFFFF" transform="matrix(1.00, 0.00, -0.00, -1.00, 896.5, 557.1)">y</text><text xml:space="preserve" font-family="Georgia,Georgia" font-size="50.0" fill="#FEFFFF" transform="matrix(1.00, 0.00, -0.00, -1.00, 921.1, 557.1)"> </text><text xml:space="preserve" font-family="Georgia,Georgia" font-size="50.0" fill="#FEFFFF" transform="matrix(1.00, 0.00, -0.00, -1.00, 933.1, 557.1)">t</text><text xml:space="preserve" font-family="Georgia,Georgia" font-size="50.0" fill="#FEFFFF" transform="matrix(1.00, 0.00, -0.00, -1.00, 950.4, 557.1)">o</text><text xml:space="preserve" font-family="Georgia,Georgia" font-size="50.0" fill="#FEFFFF" transform="matrix(1.00, 0.00, -0.00, -1.00, 977.4, 557.1)"> </text><text xml:space="preserve" font-family="Georgia,Georgia" font-size="50.0" fill="#FEFFFF" transform="matrix(1.00, 0.00, -0.00, -1.00, 989.4, 557.1)">l</text><text xml:space="preserve" font-family="Georgia,Georgia" font-size="50.0" fill="#FEFFFF" transform="matrix(1.00, 0.00, -0.00, -1.00, 1003.8, 557.1)">e</text><text xml:space="preserve" font-family="Georgia,Georgia" font-size="50.0" fill="#FEFFFF" transform="matrix(1.00, 0.00, -0.00, -1.00, 1027.9, 557.1)">a</text><text xml:space="preserve" font-family="Georgia,Georgia" font-size="50.0" fill="#FEFFFF" transform="matrix(1.00, 0.00, -0.00, -1.00, 1053.1, 557.1)">r</text><text xml:space="preserve" font-family="Georgia,Georgia" font-size="50.0" fill="#FEFFFF" transform="matrix(1.00, 0.00, -0.00, -1.00, 1073.6, 557.1)">n</text><text xml:space="preserve" font-family="Georgia,Georgia" font-size="50.0" fill="#FEFFFF" transform="matrix(1.00, 0.00, -0.00, -1.00, 1103.1, 557.1)">”</text><text xml:space="preserve" font-family="Georgia,Georgia" font-size="50.0" fill="#FEFFFF" transform="matrix(1.00, 0.00, -0.00, -1.00, 1123.7, 557.1)"> </text><text xml:space="preserve" font-family="Georgia,Georgia" font-size="50.0" fill="#FEFFFF" transform="matrix(1.00, 0.00, -0.00, -1.00, 884.0, 488.7)">–</text><text xml:space="preserve" font-family="Georgia,Georgia" font-size="50.0" fill="#FEFFFF" transform="matrix(1.00, 0.00, -0.00, -1.00, 916.1, 488.7)"> </text><text xml:space="preserve" font-family="Georgia,Georgia" font-size="50.0" fill="#FEFFFF" transform="matrix(1.00, 0.00, -0.00, -1.00, 928.2, 488.7)">G</text><text xml:space="preserve" font-family="Georgia,Georgia" font-size="50.0" fill="#FEFFFF" transform="matrix(1.00, 0.00, -0.00, -1.00, 964.4, 488.7)">u</text><text xml:space="preserve" font-family="Georgia,Georgia" font-size="50.0" fill="#FEFFFF" transform="matrix(1.00, 0.00, -0.00, -1.00, 993.2, 488.7)">l</text><text xml:space="preserve" font-family="Georgia,Georgia" font-size="50.0" fill="#FEFFFF" transform="matrix(1.00, 0.00, -0.00, -1.00, 1007.5, 488.7)">p</text><text xml:space="preserve" font-family="Georgia,Georgia" font-size="50.0" fill="#FEFFFF" transform="matrix(1.00, 0.00, -0.00, -1.00, 439.7, 299.5)">“</text><text xml:space="preserve" font-family="Georgia,Georgia" font-size="50.0" fill="#FEFFFF" transform="matrix(1.00, 0.00, -0.00, -1.00, 460.2, 299.5)">E</text><text xml:space="preserve" font-family="Georgia,Georgia" font-size="50.0" fill="#FEFFFF" transform="matrix(1.00, 0.00, -0.00, -1.00, 492.8, 299.5)">m</text><text xml:space="preserve" font-family="Georgia,Georgia" font-size="50.0" fill="#FEFFFF" transform="matrix(1.00, 0.00, -0.00, -1.00, 536.9, 299.5)">b</text><text xml:space="preserve" font-family="Georgia,Georgia" font-size="50.0" fill="#FEFFFF" transform="matrix(1.00, 0.00, -0.00, -1.00, 564.9, 299.5)">e</text><text xml:space="preserve" font-family="Georgia,Georgia" font-size="50.0" fill="#FEFFFF" transform="matrix(1.00, 0.00, -0.00, -1.00, 589.1, 299.5)">r</text><text xml:space="preserve" font-family="Georgia,Georgia" font-size="50.0" fill="#FEFFFF" transform="matrix(1.00, 0.00, -0.00, -1.00, 609.6, 299.5)">.</text><text xml:space="preserve" font-family="Georgia,Georgia" font-size="50.0" fill="#FEFFFF" transform="matrix(1.00, 0.00, -0.00, -1.00, 623.0, 299.5)">j</text><text xml:space="preserve" font-family="Georgia,Georgia" font-size="50.0" fill="#FEFFFF" transform="matrix(1.00, 0.00, -0.00, -1.00, 637.6, 299.5)">s</text><text xml:space="preserve" font-family="Georgia,Georgia" font-size="50.0" fill="#FEFFFF" transform="matrix(1.00, 0.00, -0.00, -1.00, 659.2, 299.5)"> </text><text xml:space="preserve" font-family="Georgia,Georgia" font-size="50.0" fill="#FEFFFF" transform="matrix(1.00, 0.00, -0.00, -1.00, 671.3, 299.5)">m</text><text xml:space="preserve" font-family="Georgia,Georgia" font-size="50.0" fill="#FEFFFF" transform="matrix(1.00, 0.00, -0.00, -1.00, 715.3, 299.5)">a</text><text xml:space="preserve" font-family="Georgia,Georgia" font-size="50.0" fill="#FEFFFF" transform="matrix(1.00, 0.00, -0.00, -1.00, 740.5, 299.5)">k</text><text xml:space="preserve" font-family="Georgia,Georgia" font-size="50.0" fill="#FEFFFF" transform="matrix(1.00, 0.00, -0.00, -1.00, 767.3, 299.5)">e</text><text xml:space="preserve" font-family="Georgia,Georgia" font-size="50.0" fill="#FEFFFF" transform="matrix(1.00, 0.00, -0.00, -1.00, 791.5, 299.5)">s</text><text xml:space="preserve" font-family="Georgia,Georgia" font-size="50.0" fill="#FEFFFF" transform="matrix(1.00, 0.00, -0.00, -1.00, 813.1, 299.5)"> </text><text xml:space="preserve" font-family="Georgia,Georgia" font-size="50.0" fill="#FEFFFF" transform="matrix(1.00, 0.00, -0.00, -1.00, 825.1, 299.5)">i</text><text xml:space="preserve" font-family="Georgia,Georgia" font-size="50.0" fill="#FEFFFF" transform="matrix(1.00, 0.00, -0.00, -1.00, 839.8, 299.5)">t</text><text xml:space="preserve" font-family="Georgia,Georgia" font-size="50.0" fill="#FEFFFF" transform="matrix(1.00, 0.00, -0.00, -1.00, 857.1, 299.5)"> </text><text xml:space="preserve" font-family="Georgia,Georgia" font-size="50.0" fill="#FEFFFF" transform="matrix(1.00, 0.00, -0.00, -1.00, 869.1, 299.5)">d</text><text xml:space="preserve" font-family="Georgia,Georgia" font-size="50.0" fill="#FEFFFF" transform="matrix(1.00, 0.00, -0.00, -1.00, 897.9, 299.5)">o</text><text xml:space="preserve" font-family="Georgia,Georgia" font-size="50.0" fill="#FEFFFF" transform="matrix(1.00, 0.00, -0.00, -1.00, 924.8, 299.5)">w</text><text xml:space="preserve" font-family="Georgia,Georgia" font-size="50.0" fill="#FEFFFF" transform="matrix(1.00, 0.00, -0.00, -1.00, 961.7, 299.5)">n</text><text xml:space="preserve" font-family="Georgia,Georgia" font-size="50.0" fill="#FEFFFF" transform="matrix(1.00, 0.00, -0.00, -1.00, 991.2, 299.5)">r</text><text xml:space="preserve" font-family="Georgia,Georgia" font-size="50.0" fill="#FEFFFF" transform="matrix(1.00, 0.00, -0.00, -1.00, 1011.7, 299.5)">i</text><text xml:space="preserve" font-family="Georgia,Georgia" font-size="50.0" fill="#FEFFFF" transform="matrix(1.00, 0.00, -0.00, -1.00, 1026.3, 299.5)">g</text><text xml:space="preserve" font-family="Georgia,Georgia" font-size="50.0" fill="#FEFFFF" transform="matrix(1.00, 0.00, -0.00, -1.00, 1051.8, 299.5)">h</text><text xml:space="preserve" font-family="Georgia,Georgia" font-size="50.0" fill="#FEFFFF" transform="matrix(1.00, 0.00, -0.00, -1.00, 1080.9, 299.5)">t</text><text xml:space="preserve" font-family="Georgia,Georgia" font-size="50.0" fill="#FEFFFF" transform="matrix(1.00, 0.00, -0.00, -1.00, 1098.2, 299.5)"> </text><text xml:space="preserve" font-family="Georgia,Georgia" font-size="50.0" fill="#FEFFFF" transform="matrix(1.00, 0.00, -0.00, -1.00, 1110.3, 299.5)">s</text><text xml:space="preserve" font-family="Georgia,Georgia" font-size="50.0" fill="#FEFFFF" transform="matrix(1.00, 0.00, -0.00, -1.00, 1131.9, 299.5)">i</text><text xml:space="preserve" font-family="Georgia,Georgia" font-size="50.0" fill="#FEFFFF" transform="matrix(1.00, 0.00, -0.00, -1.00, 1146.5, 299.5)">m</text><text xml:space="preserve" font-family="Georgia,Georgia" font-size="50.0" fill="#FEFFFF" transform="matrix(1.00, 0.00, -0.00, -1.00, 1190.6, 299.5)">p</text><text xml:space="preserve" font-family="Georgia,Georgia" font-size="50.0" fill="#FEFFFF" transform="matrix(1.00, 0.00, -0.00, -1.00, 1219.1, 299.5)">l</text><text xml:space="preserve" font-family="Georgia,Georgia" font-size="50.0" fill="#FEFFFF" transform="matrix(1.00, 0.00, -0.00, -1.00, 1233.5, 299.5)">e</text><text xml:space="preserve" font-family="Georgia,Georgia" font-size="50.0" fill="#FEFFFF" transform="matrix(1.00, 0.00, -0.00, -1.00, 1257.6, 299.5)"> </text><text xml:space="preserve" font-family="Georgia,Georgia" font-size="50.0" fill="#FEFFFF" transform="matrix(1.00, 0.00, -0.00, -1.00, 1269.7, 299.5)">t</text><text xml:space="preserve" font-family="Georgia,Georgia" font-size="50.0" fill="#FEFFFF" transform="matrix(1.00, 0.00, -0.00, -1.00, 1287.0, 299.5)">o</text><text xml:space="preserve" font-family="Georgia,Georgia" font-size="50.0" fill="#FEFFFF" transform="matrix(1.00, 0.00, -0.00, -1.00, 1313.9, 299.5)"> </text><text xml:space="preserve" font-family="Georgia,Georgia" font-size="50.0" fill="#FEFFFF" transform="matrix(1.00, 0.00, -0.00, -1.00, 1326.0, 299.5)">c</text><text xml:space="preserve" font-family="Georgia,Georgia" font-size="50.0" fill="#FEFFFF" transform="matrix(1.00, 0.00, -0.00, -1.00, 1348.7, 299.5)">r</text><text xml:space="preserve" font-family="Georgia,Georgia" font-size="50.0" fill="#FEFFFF" transform="matrix(1.00, 0.00, -0.00, -1.00, 1369.2, 299.5)">e</text><text xml:space="preserve" font-family="Georgia,Georgia" font-size="50.0" fill="#FEFFFF" transform="matrix(1.00, 0.00, -0.00, -1.00, 1393.4, 299.5)">a</text><text xml:space="preserve" font-family="Georgia,Georgia" font-size="50.0" fill="#FEFFFF" transform="matrix(1.00, 0.00, -0.00, -1.00, 1418.6, 299.5)">t</text><text xml:space="preserve" font-family="Georgia,Georgia" font-size="50.0" fill="#FEFFFF" transform="matrix(1.00, 0.00, -0.00, -1.00, 1435.8, 299.5)">e</text><text xml:space="preserve" font-family="Georgia,Georgia" font-size="50.0" fill="#FEFFFF" transform="matrix(1.00, 0.00, -0.00, -1.00, 1460.0, 299.5)">”</text><text xml:space="preserve" font-family="Georgia,Georgia" font-size="50.0" fill="#FEFFFF" transform="matrix(1.00, 0.00, -0.00, -1.00, 1480.6, 299.5)"> </text><text xml:space="preserve" font-family="Georgia,Georgia" font-size="50.0" fill="#FEFFFF" transform="matrix(1.00, 0.00, -0.00, -1.00, 838.4, 231.1)">–</text><text xml:space="preserve" font-family="Georgia,Georgia" font-size="50.0" fill="#FEFFFF" transform="matrix(1.00, 0.00, -0.00, -1.00, 870.5, 231.1)"> </text><text xml:space="preserve" font-family="Georgia,Georgia" font-size="50.0" fill="#FEFFFF" transform="matrix(1.00, 0.00, -0.00, -1.00, 882.6, 231.1)">E</text><text xml:space="preserve" font-family="Georgia,Georgia" font-size="50.0" fill="#FEFFFF" transform="matrix(1.00, 0.00, -0.00, -1.00, 915.3, 231.1)">m</text><text xml:space="preserve" font-family="Georgia,Georgia" font-size="50.0" fill="#FEFFFF" transform="matrix(1.00, 0.00, -0.00, -1.00, 959.3, 231.1)">b</text><text xml:space="preserve" font-family="Georgia,Georgia" font-size="50.0" fill="#FEFFFF" transform="matrix(1.00, 0.00, -0.00, -1.00, 987.3, 231.1)">e</text><text xml:space="preserve" font-family="Georgia,Georgia" font-size="50.0" fill="#FEFFFF" transform="matrix(1.00, 0.00, -0.00, -1.00, 1011.5, 231.1)">r</text><text xml:space="preserve" font-family="Georgia,Georgia" font-size="50.0" fill="#FEFFFF" transform="matrix(1.00, 0.00, -0.00, -1.00, 1032.0, 231.1)">.</text><text xml:space="preserve" font-family="Georgia,Georgia" font-size="50.0" fill="#FEFFFF" transform="matrix(1.00, 0.00, -0.00, -1.00, 1045.4, 231.1)">j</text><text xml:space="preserve" font-family="Georgia,Georgia" font-size="50.0" fill="#FEFFFF" transform="matrix(1.00, 0.00, -0.00, -1.00, 1060.0, 231.1)">s</text></g></svg>