<?xml version="1.0" encoding="UTF-8" standalone="no"?><svg xmlns="http://www.w3.org/2000/svg" xmlns:xlink="http://www.w3.org/1999/xlink" clip-rule="evenodd" stroke-miterlimit="10" viewBox="0 0 1920 1080"><desc>SVG generated by Keynote</desc><defs></defs><g transform="matrix(1.00, 0.00, -0.00, -1.00, 0.0, 1080.0)"><path d="M 0.0 1080.0 L 1920.0 1080.0 L 1920.0 0.0 L 0.0 0.0 Z M 0.0 1080.0 " fill="#212121"></path><text xml:space="preserve" font-family="ThinMintJNL,Thin Mint JNL" font-size="280.0" fill="#EAEAEA" transform="matrix(1.00, 0.00, -0.00, -1.00, 392.3, 429.0)">M</text><text xml:space="preserve" font-family="ThinMintJNL,Thin Mint JNL" font-size="280.0" fill="#EAEAEA" transform="matrix(1.00, 0.00, -0.00, -1.00, 530.1, 429.0)">Y</text><text xml:space="preserve" font-family="ThinMintJNL,Thin Mint JNL" font-size="280.0" fill="#EAEAEA" transform="matrix(1.00, 0.00, -0.00, -1.00, 614.3, 429.0)"> </text><text xml:space="preserve" font-family="ThinMintJNL,Thin Mint JNL" font-size="280.0" fill="#EAEAEA" transform="matrix(1.00, 0.00, -0.00, -1.00, 667.5, 429.0)">C</text><text xml:space="preserve" font-family="ThinMintJNL,Thin Mint JNL" font-size="280.0" fill="#EAEAEA" transform="matrix(1.00, 0.00, -0.00, -1.00, 762.7, 429.0)">h</text><text xml:space="preserve" font-family="ThinMintJNL,Thin Mint JNL" font-size="280.0" fill="#EAEAEA" transform="matrix(1.00, 0.00, -0.00, -1.00, 866.6, 429.0)">a</text><text xml:space="preserve" font-family="ThinMintJNL,Thin Mint JNL" font-size="280.0" fill="#EAEAEA" transform="matrix(1.00, 0.00, -0.00, -1.00, 963.5, 429.0)">l</text><text xml:space="preserve" font-family="ThinMintJNL,Thin Mint JNL" font-size="280.0" fill="#EAEAEA" transform="matrix(1.00, 0.00, -0.00, -1.00, 1053.4, 429.0)">l</text><text xml:space="preserve" font-family="ThinMintJNL,Thin Mint JNL" font-size="280.0" fill="#EAEAEA" transform="matrix(1.00, 0.00, -0.00, -1.00, 1143.3, 429.0)">e</text><text xml:space="preserve" font-family="ThinMintJNL,Thin Mint JNL" font-size="280.0" fill="#EAEAEA" transform="matrix(1.00, 0.00, -0.00, -1.00, 1233.4, 429.0)">n</text><text xml:space="preserve" font-family="ThinMintJNL,Thin Mint JNL" font-size="280.0" fill="#EAEAEA" transform="matrix(1.00, 0.00, -0.00, -1.00, 1337.3, 429.0)">g</text><text xml:space="preserve" font-family="ThinMintJNL,Thin Mint JNL" font-size="280.0" fill="#EAEAEA" transform="matrix(1.00, 0.00, -0.00, -1.00, 1432.5, 429.0)">e</text></g></svg>