<?xml version="1.0" encoding="UTF-8" standalone="no"?><svg xmlns="http://www.w3.org/2000/svg" xmlns:xlink="http://www.w3.org/1999/xlink" clip-rule="evenodd" stroke-miterlimit="10" viewBox="0 0 1920 1080"><desc>SVG generated by Keynote</desc><defs></defs><g transform="matrix(1.00, 0.00, -0.00, -1.00, 0.0, 1080.0)"><g><clipPath id="clip0x6000006b1160"><path d="M -1.0 1086.0 L 1092.0 1086.0 L 1092.0 -6.0 L -1.0 -6.0 Z M -1.2 1086.4 "></path></clipPath><g clip-path="url(#clip0x6000006b1160)"><image xlink:href="BA3D00F9A4D012215D82293A84E08672.png" width="512.00" height="512.00" transform="matrix(2.13, 0.00, -0.00, -2.13, -1.2, 1086.4)"></image></g></g><g><clipPath id="clip0x6180004bbf60"><path d="M 427.0 1086.0 L 1520.0 1086.0 L 1520.0 -6.0 L 427.0 -6.0 Z M 426.8 1086.4 "></path></clipPath><g clip-path="url(#clip0x6180004bbf60)"><image xlink:href="../../7891CF85-D775-4823-A018-A103570D7383/assets/BA3D00F9A4D012215D82293A84E08672.png" width="512.00" height="512.00" transform="matrix(2.13, 0.00, -0.00, -2.13, 426.8, 1086.4)"></image></g></g><g><clipPath id="clip0x6100004b3380"><path d="M 835.0 1086.0 L 1928.0 1086.0 L 1928.0 -6.0 L 835.0 -6.0 Z M 834.8 1086.4 "></path></clipPath><g clip-path="url(#clip0x6100004b3380)"><image xlink:href="../../7891CF85-D775-4823-A018-A103570D7383/assets/BA3D00F9A4D012215D82293A84E08672.png" width="512.00" height="512.00" transform="matrix(2.13, 0.00, -0.00, -2.13, 834.8, 1086.4)"></image></g></g><text xml:space="preserve" font-family="Georgia,Georgia" font-size="50.0" fill="#212121" transform="matrix(1.00, 0.00, -0.00, -1.00, 835.5, 839.9)">@</text><text xml:space="preserve" font-family="Georgia,Georgia" font-size="50.0" fill="#212121" transform="matrix(1.00, 0.00, -0.00, -1.00, 881.9, 839.9)">r</text><text xml:space="preserve" font-family="Georgia,Georgia" font-size="50.0" fill="#212121" transform="matrix(1.00, 0.00, -0.00, -1.00, 902.4, 839.9)">w</text><text xml:space="preserve" font-family="Georgia,Georgia" font-size="50.0" fill="#212121" transform="matrix(1.00, 0.00, -0.00, -1.00, 939.3, 839.9)">a</text><text xml:space="preserve" font-family="Georgia,Georgia" font-size="50.0" fill="#212121" transform="matrix(1.00, 0.00, -0.00, -1.00, 964.5, 839.9)">l</text><text xml:space="preserve" font-family="Georgia,Georgia" font-size="50.0" fill="#212121" transform="matrix(1.00, 0.00, -0.00, -1.00, 978.8, 839.9)">d</text><text xml:space="preserve" font-family="Georgia,Georgia" font-size="50.0" fill="#212121" transform="matrix(1.00, 0.00, -0.00, -1.00, 1007.5, 839.9)">r</text><text xml:space="preserve" font-family="Georgia,Georgia" font-size="50.0" fill="#212121" transform="matrix(1.00, 0.00, -0.00, -1.00, 1028.0, 839.9)">o</text><text xml:space="preserve" font-family="Georgia,Georgia" font-size="50.0" fill="#212121" transform="matrix(1.00, 0.00, -0.00, -1.00, 1054.9, 839.9)">n</text><text xml:space="preserve" font-family="ThinMintJNL,Thin Mint JNL" font-size="100.0" fill="#212121" transform="matrix(1.00, 0.00, -0.00, -1.00, 754.1, 906.6)">J</text><text xml:space="preserve" font-family="ThinMintJNL,Thin Mint JNL" font-size="100.0" fill="#212121" transform="matrix(1.00, 0.00, -0.00, -1.00, 786.2, 906.6)">o</text><text xml:space="preserve" font-family="ThinMintJNL,Thin Mint JNL" font-size="100.0" fill="#212121" transform="matrix(1.00, 0.00, -0.00, -1.00, 820.2, 906.6)">h</text><text xml:space="preserve" font-family="ThinMintJNL,Thin Mint JNL" font-size="100.0" fill="#212121" transform="matrix(1.00, 0.00, -0.00, -1.00, 857.3, 906.6)">n</text><text xml:space="preserve" font-family="ThinMintJNL,Thin Mint JNL" font-size="100.0" fill="#212121" transform="matrix(1.00, 0.00, -0.00, -1.00, 891.7, 906.6)">n</text><text xml:space="preserve" font-family="ThinMintJNL,Thin Mint JNL" font-size="100.0" fill="#212121" transform="matrix(1.00, 0.00, -0.00, -1.00, 928.8, 906.6)">y</text><text xml:space="preserve" font-family="ThinMintJNL,Thin Mint JNL" font-size="100.0" fill="#212121" transform="matrix(1.00, 0.00, -0.00, -1.00, 958.9, 906.6)">-</text><text xml:space="preserve" font-family="ThinMintJNL,Thin Mint JNL" font-size="100.0" fill="#212121" transform="matrix(1.00, 0.00, -0.00, -1.00, 976.4, 906.6)">f</text><text xml:space="preserve" font-family="ThinMintJNL,Thin Mint JNL" font-size="100.0" fill="#212121" transform="matrix(1.00, 0.00, -0.00, -1.00, 1008.5, 906.6)">i</text><text xml:space="preserve" font-family="ThinMintJNL,Thin Mint JNL" font-size="100.0" fill="#212121" transform="matrix(1.00, 0.00, -0.00, -1.00, 1021.7, 906.6)">v</text><text xml:space="preserve" font-family="ThinMintJNL,Thin Mint JNL" font-size="100.0" fill="#212121" transform="matrix(1.00, 0.00, -0.00, -1.00, 1052.3, 906.6)">e</text><text xml:space="preserve" font-family="ThinMintJNL,Thin Mint JNL" font-size="100.0" fill="#212121" transform="matrix(1.00, 0.00, -0.00, -1.00, 1086.0, 906.6)">.</text><text xml:space="preserve" font-family="ThinMintJNL,Thin Mint JNL" font-size="100.0" fill="#212121" transform="matrix(1.00, 0.00, -0.00, -1.00, 1100.4, 906.6)">j</text><text xml:space="preserve" font-family="ThinMintJNL,Thin Mint JNL" font-size="100.0" fill="#212121" transform="matrix(1.00, 0.00, -0.00, -1.00, 1131.7, 906.6)">s</text></g></svg>