<?xml version="1.0" encoding="UTF-8" standalone="no"?><svg xmlns="http://www.w3.org/2000/svg" xmlns:xlink="http://www.w3.org/1999/xlink" clip-rule="evenodd" stroke-miterlimit="10" viewBox="0 0 235 42"><desc>SVG generated by Keynote</desc><defs></defs><g transform="matrix(1.00, 0.00, -0.00, -1.00, 0.0, 42.0)"><text xml:space="preserve" font-family="Georgia,Georgia" font-size="50.0" fill="#EAEAEA" transform="matrix(1.00, 0.00, -0.00, -1.00, 0.4, 2.9)">a</text><text xml:space="preserve" font-family="Georgia,Georgia" font-size="50.0" fill="#EAEAEA" transform="matrix(1.00, 0.00, -0.00, -1.00, 25.6, 2.9)">r</text><text xml:space="preserve" font-family="Georgia,Georgia" font-size="50.0" fill="#EAEAEA" transform="matrix(1.00, 0.00, -0.00, -1.00, 46.1, 2.9)">d</text><text xml:space="preserve" font-family="Georgia,Georgia" font-size="50.0" fill="#EAEAEA" transform="matrix(1.00, 0.00, -0.00, -1.00, 74.8, 2.9)">u</text><text xml:space="preserve" font-family="Georgia,Georgia" font-size="50.0" fill="#EAEAEA" transform="matrix(1.00, 0.00, -0.00, -1.00, 103.6, 2.9)">i</text><text xml:space="preserve" font-family="Georgia,Georgia" font-size="50.0" fill="#EAEAEA" transform="matrix(1.00, 0.00, -0.00, -1.00, 118.2, 2.9)">n</text><text xml:space="preserve" font-family="Georgia,Georgia" font-size="50.0" fill="#EAEAEA" transform="matrix(1.00, 0.00, -0.00, -1.00, 147.7, 2.9)">o</text><text xml:space="preserve" font-family="Georgia,Georgia" font-size="50.0" fill="#EAEAEA" transform="matrix(1.00, 0.00, -0.00, -1.00, 174.7, 2.9)">.</text><text xml:space="preserve" font-family="Georgia,Georgia" font-size="50.0" fill="#EAEAEA" transform="matrix(1.00, 0.00, -0.00, -1.00, 188.1, 2.9)">c</text><text xml:space="preserve" font-family="Georgia,Georgia" font-size="50.0" fill="#EAEAEA" transform="matrix(1.00, 0.00, -0.00, -1.00, 210.9, 2.9)">c</text></g></svg>