<?xml version="1.0" encoding="UTF-8" standalone="no"?><svg xmlns="http://www.w3.org/2000/svg" xmlns:xlink="http://www.w3.org/1999/xlink" clip-rule="evenodd" stroke-miterlimit="10" viewBox="0 0 1920 1080"><desc>SVG generated by Keynote</desc><defs></defs><g transform="matrix(1.00, 0.00, -0.00, -1.00, 0.0, 1080.0)"><path d="M 0.0 1080.0 L 1920.0 1080.0 L 1920.0 0.0 L 0.0 0.0 Z M 0.0 1080.0 " fill="#FEFFFF"></path><image xlink:href="../../A9D47B35-9F07-4643-8600-150F218D6C0F/assets/B6E1B83C831A5B69748AEBC935799B58.png" width="1280.00" height="720.00" transform="matrix(1.50, 0.00, -0.00, -1.50, -1.9, 1081.1)"></image><text xml:space="preserve" font-family="ThinMintJNL,Thin Mint JNL" font-size="100.0" fill="#EAEAEA" transform="matrix(1.00, 0.00, -0.00, -1.00, 849.9, 908.0)">A</text><text xml:space="preserve" font-family="ThinMintJNL,Thin Mint JNL" font-size="100.0" fill="#EAEAEA" transform="matrix(1.00, 0.00, -0.00, -1.00, 884.0, 908.0)">r</text><text xml:space="preserve" font-family="ThinMintJNL,Thin Mint JNL" font-size="100.0" fill="#EAEAEA" transform="matrix(1.00, 0.00, -0.00, -1.00, 917.6, 908.0)">d</text><text xml:space="preserve" font-family="ThinMintJNL,Thin Mint JNL" font-size="100.0" fill="#EAEAEA" transform="matrix(1.00, 0.00, -0.00, -1.00, 953.1, 908.0)">u</text><text xml:space="preserve" font-family="ThinMintJNL,Thin Mint JNL" font-size="100.0" fill="#EAEAEA" transform="matrix(1.00, 0.00, -0.00, -1.00, 987.2, 908.0)">i</text><text xml:space="preserve" font-family="ThinMintJNL,Thin Mint JNL" font-size="100.0" fill="#EAEAEA" transform="matrix(1.00, 0.00, -0.00, -1.00, 1000.4, 908.0)">n</text><text xml:space="preserve" font-family="ThinMintJNL,Thin Mint JNL" font-size="100.0" fill="#EAEAEA" transform="matrix(1.00, 0.00, -0.00, -1.00, 1036.1, 908.0)">o</text><text xml:space="preserve" font-family="Georgia,Georgia" font-size="50.0" fill="#EAEAEA" transform="matrix(1.00, 0.00, -0.00, -1.00, 843.4, 839.9)">a</text><text xml:space="preserve" font-family="Georgia,Georgia" font-size="50.0" fill="#EAEAEA" transform="matrix(1.00, 0.00, -0.00, -1.00, 868.6, 839.9)">r</text><text xml:space="preserve" font-family="Georgia,Georgia" font-size="50.0" fill="#EAEAEA" transform="matrix(1.00, 0.00, -0.00, -1.00, 889.1, 839.9)">d</text><text xml:space="preserve" font-family="Georgia,Georgia" font-size="50.0" fill="#EAEAEA" transform="matrix(1.00, 0.00, -0.00, -1.00, 917.8, 839.9)">u</text><text xml:space="preserve" font-family="Georgia,Georgia" font-size="50.0" fill="#EAEAEA" transform="matrix(1.00, 0.00, -0.00, -1.00, 946.6, 839.9)">i</text><text xml:space="preserve" font-family="Georgia,Georgia" font-size="50.0" fill="#EAEAEA" transform="matrix(1.00, 0.00, -0.00, -1.00, 961.2, 839.9)">n</text><text xml:space="preserve" font-family="Georgia,Georgia" font-size="50.0" fill="#EAEAEA" transform="matrix(1.00, 0.00, -0.00, -1.00, 990.7, 839.9)">o</text><text xml:space="preserve" font-family="Georgia,Georgia" font-size="50.0" fill="#EAEAEA" transform="matrix(1.00, 0.00, -0.00, -1.00, 1017.7, 839.9)">.</text><text xml:space="preserve" font-family="Georgia,Georgia" font-size="50.0" fill="#EAEAEA" transform="matrix(1.00, 0.00, -0.00, -1.00, 1031.1, 839.9)">c</text><text xml:space="preserve" font-family="Georgia,Georgia" font-size="50.0" fill="#EAEAEA" transform="matrix(1.00, 0.00, -0.00, -1.00, 1053.9, 839.9)">c</text></g></svg>