<?xml version="1.0" encoding="UTF-8" standalone="no"?><svg xmlns="http://www.w3.org/2000/svg" xmlns:xlink="http://www.w3.org/1999/xlink" clip-rule="evenodd" stroke-miterlimit="10" viewBox="0 0 1920 1080"><desc>SVG generated by Keynote</desc><defs></defs><g transform="matrix(1.00, 0.00, -0.00, -1.00, 0.0, 1080.0)"><path d="M 0.0 1080.0 L 1920.0 1080.0 L 1920.0 0.0 L 0.0 0.0 Z M 0.0 1080.0 " fill="#212121"></path><text xml:space="preserve" font-family="Georgia,Georgia" font-size="117.6" fill="#EAEAEA" transform="matrix(1.00, 0.00, -0.00, -1.00, 255.9, 571.2)">“</text><text xml:space="preserve" font-family="Georgia,Georgia" font-size="117.6" fill="#EAEAEA" transform="matrix(1.00, 0.00, -0.00, -1.00, 304.2, 571.2)">S</text><text xml:space="preserve" font-family="Georgia,Georgia" font-size="117.6" fill="#EAEAEA" transform="matrix(1.00, 0.00, -0.00, -1.00, 370.1, 571.2)">t</text><text xml:space="preserve" font-family="Georgia,Georgia" font-size="117.6" fill="#EAEAEA" transform="matrix(1.00, 0.00, -0.00, -1.00, 410.7, 571.2)">a</text><text xml:space="preserve" font-family="Georgia,Georgia" font-size="117.6" fill="#EAEAEA" transform="matrix(1.00, 0.00, -0.00, -1.00, 470.0, 571.2)">r</text><text xml:space="preserve" font-family="Georgia,Georgia" font-size="117.6" fill="#EAEAEA" transform="matrix(1.00, 0.00, -0.00, -1.00, 518.1, 571.2)">t</text><text xml:space="preserve" font-family="Georgia,Georgia" font-size="117.6" fill="#EAEAEA" transform="matrix(1.00, 0.00, -0.00, -1.00, 558.8, 571.2)"> </text><text xml:space="preserve" font-family="Georgia,Georgia" font-size="117.6" fill="#EAEAEA" transform="matrix(1.00, 0.00, -0.00, -1.00, 587.1, 571.2)">w</text><text xml:space="preserve" font-family="Georgia,Georgia" font-size="117.6" fill="#EAEAEA" transform="matrix(1.00, 0.00, -0.00, -1.00, 673.9, 571.2)">i</text><text xml:space="preserve" font-family="Georgia,Georgia" font-size="117.6" fill="#EAEAEA" transform="matrix(1.00, 0.00, -0.00, -1.00, 708.3, 571.2)">t</text><text xml:space="preserve" font-family="Georgia,Georgia" font-size="117.6" fill="#EAEAEA" transform="matrix(1.00, 0.00, -0.00, -1.00, 749.0, 571.2)">h</text><text xml:space="preserve" font-family="Georgia,Georgia" font-size="117.6" fill="#EAEAEA" transform="matrix(1.00, 0.00, -0.00, -1.00, 817.4, 571.2)"> </text><text xml:space="preserve" font-family="Georgia,Georgia" font-size="117.6" fill="#EAEAEA" transform="matrix(1.00, 0.00, -0.00, -1.00, 845.8, 571.2)">s</text><text xml:space="preserve" font-family="Georgia,Georgia" font-size="117.6" fill="#EAEAEA" transform="matrix(1.00, 0.00, -0.00, -1.00, 896.6, 571.2)">o</text><text xml:space="preserve" font-family="Georgia,Georgia" font-size="117.6" fill="#EAEAEA" transform="matrix(1.00, 0.00, -0.00, -1.00, 960.0, 571.2)">m</text><text xml:space="preserve" font-family="Georgia,Georgia" font-size="117.6" fill="#EAEAEA" transform="matrix(1.00, 0.00, -0.00, -1.00, 1063.6, 571.2)">e</text><text xml:space="preserve" font-family="Georgia,Georgia" font-size="117.6" fill="#EAEAEA" transform="matrix(1.00, 0.00, -0.00, -1.00, 1120.5, 571.2)">t</text><text xml:space="preserve" font-family="Georgia,Georgia" font-size="117.6" fill="#EAEAEA" transform="matrix(1.00, 0.00, -0.00, -1.00, 1161.1, 571.2)">h</text><text xml:space="preserve" font-family="Georgia,Georgia" font-size="117.6" fill="#EAEAEA" transform="matrix(1.00, 0.00, -0.00, -1.00, 1229.6, 571.2)">i</text><text xml:space="preserve" font-family="Georgia,Georgia" font-size="117.6" fill="#EAEAEA" transform="matrix(1.00, 0.00, -0.00, -1.00, 1264.0, 571.2)">n</text><text xml:space="preserve" font-family="Georgia,Georgia" font-size="117.6" fill="#EAEAEA" transform="matrix(1.00, 0.00, -0.00, -1.00, 1333.5, 571.2)">g</text><text xml:space="preserve" font-family="Georgia,Georgia" font-size="117.6" fill="#EAEAEA" transform="matrix(1.00, 0.00, -0.00, -1.00, 1393.4, 571.2)"> </text><text xml:space="preserve" font-family="Georgia,Georgia" font-size="117.6" fill="#EAEAEA" transform="matrix(1.00, 0.00, -0.00, -1.00, 1421.8, 571.2)">s</text><text xml:space="preserve" font-family="Georgia,Georgia" font-size="117.6" fill="#EAEAEA" transform="matrix(1.00, 0.00, -0.00, -1.00, 1472.6, 571.2)">h</text><text xml:space="preserve" font-family="Georgia,Georgia" font-size="117.6" fill="#EAEAEA" transform="matrix(1.00, 0.00, -0.00, -1.00, 1541.1, 571.2)">i</text><text xml:space="preserve" font-family="Georgia,Georgia" font-size="117.6" fill="#EAEAEA" transform="matrix(1.00, 0.00, -0.00, -1.00, 1575.5, 571.2)">t</text><text xml:space="preserve" font-family="Georgia,Georgia" font-size="117.6" fill="#EAEAEA" transform="matrix(1.00, 0.00, -0.00, -1.00, 1616.2, 571.2)">”</text><text xml:space="preserve" font-family="Georgia,Georgia" font-size="117.6" fill="#EAEAEA" transform="matrix(1.00, 0.00, -0.00, -1.00, 1664.4, 571.2)"> </text><text xml:space="preserve" font-family="Georgia,Georgia" font-size="117.6" fill="#EAEAEA" transform="matrix(1.00, 0.00, -0.00, -1.00, 754.8, 410.4)">–</text><text xml:space="preserve" font-family="Georgia,Georgia" font-size="117.6" fill="#EAEAEA" transform="matrix(1.00, 0.00, -0.00, -1.00, 830.4, 410.4)"> </text><text xml:space="preserve" font-family="Georgia,Georgia" font-size="117.6" fill="#EAEAEA" transform="matrix(1.00, 0.00, -0.00, -1.00, 858.8, 410.4)">@</text><text xml:space="preserve" font-family="Georgia,Georgia" font-size="117.6" fill="#EAEAEA" transform="matrix(1.00, 0.00, -0.00, -1.00, 968.0, 410.4)">h</text><text xml:space="preserve" font-family="Georgia,Georgia" font-size="117.6" fill="#EAEAEA" transform="matrix(1.00, 0.00, -0.00, -1.00, 1036.5, 410.4)">a</text><text xml:space="preserve" font-family="Georgia,Georgia" font-size="117.6" fill="#EAEAEA" transform="matrix(1.00, 0.00, -0.00, -1.00, 1095.7, 410.4)">n</text></g></svg>