<?xml version="1.0" encoding="UTF-8" standalone="no"?><svg xmlns="http://www.w3.org/2000/svg" xmlns:xlink="http://www.w3.org/1999/xlink" clip-rule="evenodd" stroke-miterlimit="10" viewBox="0 0 1920 1080"><desc>SVG generated by Keynote</desc><defs></defs><g transform="matrix(1.00, 0.00, -0.00, -1.00, 0.0, 1080.0)"><path d="M 0.0 1080.0 L 1920.0 1080.0 L 1920.0 0.0 L 0.0 0.0 Z M 0.0 1080.0 " fill="#212121"></path><text xml:space="preserve" font-family="Georgia,Georgia" font-size="60.0" fill="#EAEAEA" transform="matrix(1.00, 0.00, -0.00, -1.00, 240.5, 896.2)">D</text><text xml:space="preserve" font-family="Georgia,Georgia" font-size="60.0" fill="#EAEAEA" transform="matrix(1.00, 0.00, -0.00, -1.00, 285.5, 896.2)">r</text><text xml:space="preserve" font-family="Georgia,Georgia" font-size="60.0" fill="#EAEAEA" transform="matrix(1.00, 0.00, -0.00, -1.00, 310.1, 896.2)">i</text><text xml:space="preserve" font-family="Georgia,Georgia" font-size="60.0" fill="#EAEAEA" transform="matrix(1.00, 0.00, -0.00, -1.00, 327.6, 896.2)">v</text><text xml:space="preserve" font-family="Georgia,Georgia" font-size="60.0" fill="#EAEAEA" transform="matrix(1.00, 0.00, -0.00, -1.00, 357.4, 896.2)">a</text><text xml:space="preserve" font-family="Georgia,Georgia" font-size="60.0" fill="#EAEAEA" transform="matrix(1.00, 0.00, -0.00, -1.00, 387.6, 896.2)">b</text><text xml:space="preserve" font-family="Georgia,Georgia" font-size="60.0" fill="#EAEAEA" transform="matrix(1.00, 0.00, -0.00, -1.00, 421.2, 896.2)">l</text><text xml:space="preserve" font-family="Georgia,Georgia" font-size="60.0" fill="#EAEAEA" transform="matrix(1.00, 0.00, -0.00, -1.00, 438.4, 896.2)">e</text><text xml:space="preserve" font-family="Georgia,Georgia" font-size="60.0" fill="#EAEAEA" transform="matrix(1.00, 0.00, -0.00, -1.00, 1451.1, 896.2)">W</text><text xml:space="preserve" font-family="Georgia,Georgia" font-size="60.0" fill="#EAEAEA" transform="matrix(1.00, 0.00, -0.00, -1.00, 1509.6, 896.2)">i</text><text xml:space="preserve" font-family="Georgia,Georgia" font-size="60.0" fill="#EAEAEA" transform="matrix(1.00, 0.00, -0.00, -1.00, 1527.2, 896.2)">r</text><text xml:space="preserve" font-family="Georgia,Georgia" font-size="60.0" fill="#EAEAEA" transform="matrix(1.00, 0.00, -0.00, -1.00, 1551.8, 896.2)">e</text><text xml:space="preserve" font-family="Georgia,Georgia" font-size="60.0" fill="#EAEAEA" transform="matrix(1.00, 0.00, -0.00, -1.00, 1580.8, 896.2)">l</text><text xml:space="preserve" font-family="Georgia,Georgia" font-size="60.0" fill="#EAEAEA" transform="matrix(1.00, 0.00, -0.00, -1.00, 1598.0, 896.2)">e</text><text xml:space="preserve" font-family="Georgia,Georgia" font-size="60.0" fill="#EAEAEA" transform="matrix(1.00, 0.00, -0.00, -1.00, 1627.0, 896.2)">s</text><text xml:space="preserve" font-family="Georgia,Georgia" font-size="60.0" fill="#EAEAEA" transform="matrix(1.00, 0.00, -0.00, -1.00, 1653.0, 896.2)">s</text><text xml:space="preserve" font-family="Georgia,Georgia" font-size="60.0" fill="#EAEAEA" transform="matrix(1.00, 0.00, -0.00, -1.00, 96.2, 142.2)">C</text><text xml:space="preserve" font-family="Georgia,Georgia" font-size="60.0" fill="#EAEAEA" transform="matrix(1.00, 0.00, -0.00, -1.00, 134.8, 142.2)">o</text><text xml:space="preserve" font-family="Georgia,Georgia" font-size="60.0" fill="#EAEAEA" transform="matrix(1.00, 0.00, -0.00, -1.00, 167.1, 142.2)">n</text><text xml:space="preserve" font-family="Georgia,Georgia" font-size="60.0" fill="#EAEAEA" transform="matrix(1.00, 0.00, -0.00, -1.00, 202.6, 142.2)">t</text><text xml:space="preserve" font-family="Georgia,Georgia" font-size="60.0" fill="#EAEAEA" transform="matrix(1.00, 0.00, -0.00, -1.00, 223.3, 142.2)">r</text><text xml:space="preserve" font-family="Georgia,Georgia" font-size="60.0" fill="#EAEAEA" transform="matrix(1.00, 0.00, -0.00, -1.00, 247.8, 142.2)">o</text><text xml:space="preserve" font-family="Georgia,Georgia" font-size="60.0" fill="#EAEAEA" transform="matrix(1.00, 0.00, -0.00, -1.00, 280.2, 142.2)">l</text><text xml:space="preserve" font-family="Georgia,Georgia" font-size="60.0" fill="#EAEAEA" transform="matrix(1.00, 0.00, -0.00, -1.00, 297.4, 142.2)">l</text><text xml:space="preserve" font-family="Georgia,Georgia" font-size="60.0" fill="#EAEAEA" transform="matrix(1.00, 0.00, -0.00, -1.00, 314.5, 142.2)">e</text><text xml:space="preserve" font-family="Georgia,Georgia" font-size="60.0" fill="#EAEAEA" transform="matrix(1.00, 0.00, -0.00, -1.00, 343.6, 142.2)">d</text><text xml:space="preserve" font-family="Georgia,Georgia" font-size="60.0" fill="#EAEAEA" transform="matrix(1.00, 0.00, -0.00, -1.00, 378.0, 142.2)"> </text><text xml:space="preserve" font-family="Georgia,Georgia" font-size="60.0" fill="#EAEAEA" transform="matrix(1.00, 0.00, -0.00, -1.00, 392.5, 142.2)">v</text><text xml:space="preserve" font-family="Georgia,Georgia" font-size="60.0" fill="#EAEAEA" transform="matrix(1.00, 0.00, -0.00, -1.00, 422.3, 142.2)">i</text><text xml:space="preserve" font-family="Georgia,Georgia" font-size="60.0" fill="#EAEAEA" transform="matrix(1.00, 0.00, -0.00, -1.00, 439.9, 142.2)">a</text><text xml:space="preserve" font-family="Georgia,Georgia" font-size="60.0" fill="#EAEAEA" transform="matrix(1.00, 0.00, -0.00, -1.00, 470.1, 142.2)"> </text><text xml:space="preserve" font-family="Georgia,Georgia" font-size="60.0" fill="#EAEAEA" transform="matrix(1.00, 0.00, -0.00, -1.00, 484.6, 142.2)">w</text><text xml:space="preserve" font-family="Georgia,Georgia" font-size="60.0" fill="#EAEAEA" transform="matrix(1.00, 0.00, -0.00, -1.00, 528.8, 142.2)">e</text><text xml:space="preserve" font-family="Georgia,Georgia" font-size="60.0" fill="#EAEAEA" transform="matrix(1.00, 0.00, -0.00, -1.00, 557.9, 142.2)">b</text><text xml:space="preserve" font-family="Georgia,Georgia" font-size="60.0" fill="#EAEAEA" transform="matrix(1.00, 0.00, -0.00, -1.00, 591.5, 142.2)"> </text><text xml:space="preserve" font-family="Georgia,Georgia" font-size="60.0" fill="#EAEAEA" transform="matrix(1.00, 0.00, -0.00, -1.00, 606.0, 142.2)">b</text><text xml:space="preserve" font-family="Georgia,Georgia" font-size="60.0" fill="#EAEAEA" transform="matrix(1.00, 0.00, -0.00, -1.00, 639.6, 142.2)">r</text><text xml:space="preserve" font-family="Georgia,Georgia" font-size="60.0" fill="#EAEAEA" transform="matrix(1.00, 0.00, -0.00, -1.00, 664.1, 142.2)">o</text><text xml:space="preserve" font-family="Georgia,Georgia" font-size="60.0" fill="#EAEAEA" transform="matrix(1.00, 0.00, -0.00, -1.00, 696.5, 142.2)">w</text><text xml:space="preserve" font-family="Georgia,Georgia" font-size="60.0" fill="#EAEAEA" transform="matrix(1.00, 0.00, -0.00, -1.00, 740.7, 142.2)">s</text><text xml:space="preserve" font-family="Georgia,Georgia" font-size="60.0" fill="#EAEAEA" transform="matrix(1.00, 0.00, -0.00, -1.00, 766.7, 142.2)">e</text><text xml:space="preserve" font-family="Georgia,Georgia" font-size="60.0" fill="#EAEAEA" transform="matrix(1.00, 0.00, -0.00, -1.00, 795.7, 142.2)">r</text><text xml:space="preserve" font-family="Georgia,Georgia" font-size="60.0" fill="#EAEAEA" transform="matrix(1.00, 0.00, -0.00, -1.00, 820.3, 142.2)">?</text><text xml:space="preserve" font-family="Georgia,Georgia" font-size="60.0" fill="#EAEAEA" transform="matrix(1.00, 0.00, -0.00, -1.00, 1447.9, 142.2)">C</text><text xml:space="preserve" font-family="Georgia,Georgia" font-size="60.0" fill="#EAEAEA" transform="matrix(1.00, 0.00, -0.00, -1.00, 1486.5, 142.2)">a</text><text xml:space="preserve" font-family="Georgia,Georgia" font-size="60.0" fill="#EAEAEA" transform="matrix(1.00, 0.00, -0.00, -1.00, 1516.7, 142.2)">m</text><text xml:space="preserve" font-family="Georgia,Georgia" font-size="60.0" fill="#EAEAEA" transform="matrix(1.00, 0.00, -0.00, -1.00, 1569.6, 142.2)">e</text><text xml:space="preserve" font-family="Georgia,Georgia" font-size="60.0" fill="#EAEAEA" transform="matrix(1.00, 0.00, -0.00, -1.00, 1598.6, 142.2)">r</text><text xml:space="preserve" font-family="Georgia,Georgia" font-size="60.0" fill="#EAEAEA" transform="matrix(1.00, 0.00, -0.00, -1.00, 1623.2, 142.2)">a</text><text xml:space="preserve" font-family="Georgia,Georgia" font-size="60.0" fill="#EAEAEA" transform="matrix(1.00, 0.00, -0.00, -1.00, 1653.4, 142.2)">?</text><text xml:space="preserve" font-family="ThinMintJNL,Thin Mint JNL" font-size="280.0" fill="#EAEAEA" transform="matrix(1.00, 0.00, -0.00, -1.00, 568.4, 429.0)">T</text><text xml:space="preserve" font-family="ThinMintJNL,Thin Mint JNL" font-size="280.0" fill="#EAEAEA" transform="matrix(1.00, 0.00, -0.00, -1.00, 653.5, 429.0)">h</text><text xml:space="preserve" font-family="ThinMintJNL,Thin Mint JNL" font-size="280.0" fill="#EAEAEA" transform="matrix(1.00, 0.00, -0.00, -1.00, 754.9, 429.0)">e</text><text xml:space="preserve" font-family="ThinMintJNL,Thin Mint JNL" font-size="280.0" fill="#EAEAEA" transform="matrix(1.00, 0.00, -0.00, -1.00, 850.1, 429.0)"> </text><text xml:space="preserve" font-family="ThinMintJNL,Thin Mint JNL" font-size="280.0" fill="#EAEAEA" transform="matrix(1.00, 0.00, -0.00, -1.00, 903.3, 429.0)">V</text><text xml:space="preserve" font-family="ThinMintJNL,Thin Mint JNL" font-size="280.0" fill="#EAEAEA" transform="matrix(1.00, 0.00, -0.00, -1.00, 989.0, 429.0)">i</text><text xml:space="preserve" font-family="ThinMintJNL,Thin Mint JNL" font-size="280.0" fill="#EAEAEA" transform="matrix(1.00, 0.00, -0.00, -1.00, 1023.7, 429.0)">s</text><text xml:space="preserve" font-family="ThinMintJNL,Thin Mint JNL" font-size="280.0" fill="#EAEAEA" transform="matrix(1.00, 0.00, -0.00, -1.00, 1117.8, 429.0)">i</text><text xml:space="preserve" font-family="ThinMintJNL,Thin Mint JNL" font-size="280.0" fill="#EAEAEA" transform="matrix(1.00, 0.00, -0.00, -1.00, 1154.7, 429.0)">o</text><text xml:space="preserve" font-family="ThinMintJNL,Thin Mint JNL" font-size="280.0" fill="#EAEAEA" transform="matrix(1.00, 0.00, -0.00, -1.00, 1247.7, 429.0)">n</text><image xlink:href="../../248128DA-F429-4587-B2AE-8E705513D7C5/assets/6206D0D7DF696B1E641254C2275655FA.png" width="929.00" height="2479.00" transform="matrix(-0.07, -0.07, 0.07, -0.07, 1390.3, 427.9)"></image><image xlink:href="../../248128DA-F429-4587-B2AE-8E705513D7C5/assets/6206D0D7DF696B1E641254C2275655FA.png" width="929.00" height="2479.00" transform="matrix(-0.07, -0.07, -0.07, 0.07, 585.7, 697.4)"></image><image xlink:href="../../248128DA-F429-4587-B2AE-8E705513D7C5/assets/6206D0D7DF696B1E641254C2275655FA.png" width="929.00" height="2479.00" transform="matrix(0.07, -0.07, 0.07, 0.07, 1328.6, 697.4)"></image><image xlink:href="../../248128DA-F429-4587-B2AE-8E705513D7C5/assets/6206D0D7DF696B1E641254C2275655FA.png" width="929.00" height="2479.00" transform="matrix(0.07, -0.07, -0.07, -0.07, 562.2, 427.9)"></image></g></svg>