<?xml version="1.0" encoding="UTF-8" standalone="no"?><svg xmlns="http://www.w3.org/2000/svg" xmlns:xlink="http://www.w3.org/1999/xlink" clip-rule="evenodd" stroke-miterlimit="10" viewBox="0 0 1920 1080"><desc>SVG generated by Keynote</desc><defs></defs><g transform="matrix(1.00, 0.00, -0.00, -1.00, 0.0, 1080.0)"><path d="M 0.0 1080.0 L 1920.0 1080.0 L 1920.0 0.0 L 0.0 0.0 Z M 0.0 1080.0 " fill="#212121"></path><text xml:space="preserve" font-family="ThinMintJNL,Thin Mint JNL" font-size="252.0" fill="#EAEAEA" transform="matrix(1.00, 0.00, -0.00, -1.00, 151.5, 440.4)">S</text><text xml:space="preserve" font-family="ThinMintJNL,Thin Mint JNL" font-size="252.0" fill="#EAEAEA" transform="matrix(1.00, 0.00, -0.00, -1.00, 237.6, 440.4)">t</text><text xml:space="preserve" font-family="ThinMintJNL,Thin Mint JNL" font-size="252.0" fill="#EAEAEA" transform="matrix(1.00, 0.00, -0.00, -1.00, 314.2, 440.4)">u</text><text xml:space="preserve" font-family="ThinMintJNL,Thin Mint JNL" font-size="252.0" fill="#EAEAEA" transform="matrix(1.00, 0.00, -0.00, -1.00, 400.2, 440.4)">c</text><text xml:space="preserve" font-family="ThinMintJNL,Thin Mint JNL" font-size="252.0" fill="#EAEAEA" transform="matrix(1.00, 0.00, -0.00, -1.00, 485.6, 440.4)">k</text><text xml:space="preserve" font-family="ThinMintJNL,Thin Mint JNL" font-size="252.0" fill="#EAEAEA" transform="matrix(1.00, 0.00, -0.00, -1.00, 570.3, 440.4)">?</text><text xml:space="preserve" font-family="ThinMintJNL,Thin Mint JNL" font-size="252.0" fill="#EAEAEA" transform="matrix(1.00, 0.00, -0.00, -1.00, 656.0, 440.4)"> </text><text xml:space="preserve" font-family="ThinMintJNL,Thin Mint JNL" font-size="252.0" fill="#EAEAEA" transform="matrix(1.00, 0.00, -0.00, -1.00, 703.8, 440.4)">T</text><text xml:space="preserve" font-family="ThinMintJNL,Thin Mint JNL" font-size="252.0" fill="#EAEAEA" transform="matrix(1.00, 0.00, -0.00, -1.00, 780.5, 440.4)">a</text><text xml:space="preserve" font-family="ThinMintJNL,Thin Mint JNL" font-size="252.0" fill="#EAEAEA" transform="matrix(1.00, 0.00, -0.00, -1.00, 862.6, 440.4)">k</text><text xml:space="preserve" font-family="ThinMintJNL,Thin Mint JNL" font-size="252.0" fill="#EAEAEA" transform="matrix(1.00, 0.00, -0.00, -1.00, 947.3, 440.4)">e</text><text xml:space="preserve" font-family="ThinMintJNL,Thin Mint JNL" font-size="252.0" fill="#EAEAEA" transform="matrix(1.00, 0.00, -0.00, -1.00, 1033.0, 440.4)"> </text><text xml:space="preserve" font-family="ThinMintJNL,Thin Mint JNL" font-size="252.0" fill="#EAEAEA" transform="matrix(1.00, 0.00, -0.00, -1.00, 1080.8, 440.4)">a</text><text xml:space="preserve" font-family="ThinMintJNL,Thin Mint JNL" font-size="252.0" fill="#EAEAEA" transform="matrix(1.00, 0.00, -0.00, -1.00, 1166.8, 440.4)"> </text><text xml:space="preserve" font-family="ThinMintJNL,Thin Mint JNL" font-size="252.0" fill="#EAEAEA" transform="matrix(1.00, 0.00, -0.00, -1.00, 1214.6, 440.4)">B</text><text xml:space="preserve" font-family="ThinMintJNL,Thin Mint JNL" font-size="252.0" fill="#EAEAEA" transform="matrix(1.00, 0.00, -0.00, -1.00, 1300.8, 440.4)">r</text><text xml:space="preserve" font-family="ThinMintJNL,Thin Mint JNL" font-size="252.0" fill="#EAEAEA" transform="matrix(1.00, 0.00, -0.00, -1.00, 1390.5, 440.4)">e</text><text xml:space="preserve" font-family="ThinMintJNL,Thin Mint JNL" font-size="252.0" fill="#EAEAEA" transform="matrix(1.00, 0.00, -0.00, -1.00, 1476.2, 440.4)">a</text><text xml:space="preserve" font-family="ThinMintJNL,Thin Mint JNL" font-size="252.0" fill="#EAEAEA" transform="matrix(1.00, 0.00, -0.00, -1.00, 1562.2, 440.4)">t</text><text xml:space="preserve" font-family="ThinMintJNL,Thin Mint JNL" font-size="252.0" fill="#EAEAEA" transform="matrix(1.00, 0.00, -0.00, -1.00, 1638.8, 440.4)">h</text><text xml:space="preserve" font-family="ThinMintJNL,Thin Mint JNL" font-size="252.0" fill="#EAEAEA" transform="matrix(1.00, 0.00, -0.00, -1.00, 1732.3, 440.4)">.</text></g></svg>