<?xml version="1.0" encoding="UTF-8" standalone="no"?><svg xmlns="http://www.w3.org/2000/svg" xmlns:xlink="http://www.w3.org/1999/xlink" clip-rule="evenodd" stroke-miterlimit="10" viewBox="0 0 319 80"><desc>SVG generated by Keynote</desc><defs></defs><g transform="matrix(1.00, 0.00, -0.00, -1.00, 0.0, 80.0)"><text xml:space="preserve" font-family="ThinMintJNL,Thin Mint JNL" font-size="100.0" fill="#000000" transform="matrix(1.00, 0.00, -0.00, -1.00, -0.1, 2.5)">T</text><text xml:space="preserve" font-family="ThinMintJNL,Thin Mint JNL" font-size="100.0" fill="#000000" transform="matrix(1.00, 0.00, -0.00, -1.00, 30.3, 2.5)">h</text><text xml:space="preserve" font-family="ThinMintJNL,Thin Mint JNL" font-size="100.0" fill="#000000" transform="matrix(1.00, 0.00, -0.00, -1.00, 66.5, 2.5)">e</text><text xml:space="preserve" font-family="ThinMintJNL,Thin Mint JNL" font-size="100.0" fill="#000000" transform="matrix(1.00, 0.00, -0.00, -1.00, 100.5, 2.5)"> </text><text xml:space="preserve" font-family="ThinMintJNL,Thin Mint JNL" font-size="100.0" fill="#000000" transform="matrix(1.00, 0.00, -0.00, -1.00, 119.5, 2.5)">S</text><text xml:space="preserve" font-family="ThinMintJNL,Thin Mint JNL" font-size="100.0" fill="#000000" transform="matrix(1.00, 0.00, -0.00, -1.00, 153.7, 2.5)">k</text><text xml:space="preserve" font-family="ThinMintJNL,Thin Mint JNL" font-size="100.0" fill="#000000" transform="matrix(1.00, 0.00, -0.00, -1.00, 187.3, 2.5)">e</text><text xml:space="preserve" font-family="ThinMintJNL,Thin Mint JNL" font-size="100.0" fill="#000000" transform="matrix(1.00, 0.00, -0.00, -1.00, 221.3, 2.5)">t</text><text xml:space="preserve" font-family="ThinMintJNL,Thin Mint JNL" font-size="100.0" fill="#000000" transform="matrix(1.00, 0.00, -0.00, -1.00, 251.7, 2.5)">c</text><text xml:space="preserve" font-family="ThinMintJNL,Thin Mint JNL" font-size="100.0" fill="#000000" transform="matrix(1.00, 0.00, -0.00, -1.00, 285.0, 2.5)">h</text></g></svg>