<?xml version="1.0" encoding="UTF-8" standalone="no"?><svg xmlns="http://www.w3.org/2000/svg" xmlns:xlink="http://www.w3.org/1999/xlink" clip-rule="evenodd" stroke-miterlimit="10" viewBox="0 0 1920 1080"><desc>SVG generated by Keynote</desc><defs></defs><g transform="matrix(1.00, 0.00, -0.00, -1.00, 0.0, 1080.0)"><path d="M 0.0 1080.0 L 1920.0 1080.0 L 1920.0 0.0 L 0.0 0.0 Z M 0.0 1080.0 " fill="#FEFFFF"></path><image xlink:href="B95DE3C26FE1A1CDEA3533E2D4585FD8.png" width="1280.00" height="720.00" transform="matrix(1.50, 0.00, -0.00, -1.50, -2.3, 1081.0)"></image><text xml:space="preserve" font-family="ThinMintJNL,Thin Mint JNL" font-size="100.0" fill="#000000" transform="matrix(1.00, 0.00, -0.00, -1.00, 82.5, 500.5)">T</text><text xml:space="preserve" font-family="ThinMintJNL,Thin Mint JNL" font-size="100.0" fill="#000000" transform="matrix(1.00, 0.00, -0.00, -1.00, 112.8, 500.5)">h</text><text xml:space="preserve" font-family="ThinMintJNL,Thin Mint JNL" font-size="100.0" fill="#000000" transform="matrix(1.00, 0.00, -0.00, -1.00, 149.1, 500.5)">e</text><text xml:space="preserve" font-family="ThinMintJNL,Thin Mint JNL" font-size="100.0" fill="#000000" transform="matrix(1.00, 0.00, -0.00, -1.00, 183.1, 500.5)"> </text><text xml:space="preserve" font-family="ThinMintJNL,Thin Mint JNL" font-size="100.0" fill="#000000" transform="matrix(1.00, 0.00, -0.00, -1.00, 202.1, 500.5)">S</text><text xml:space="preserve" font-family="ThinMintJNL,Thin Mint JNL" font-size="100.0" fill="#000000" transform="matrix(1.00, 0.00, -0.00, -1.00, 236.2, 500.5)">e</text><text xml:space="preserve" font-family="ThinMintJNL,Thin Mint JNL" font-size="100.0" fill="#000000" transform="matrix(1.00, 0.00, -0.00, -1.00, 270.2, 500.5)">t</text><text xml:space="preserve" font-family="ThinMintJNL,Thin Mint JNL" font-size="100.0" fill="#000000" transform="matrix(1.00, 0.00, -0.00, -1.00, 300.7, 500.5)">t</text><text xml:space="preserve" font-family="ThinMintJNL,Thin Mint JNL" font-size="100.0" fill="#000000" transform="matrix(1.00, 0.00, -0.00, -1.00, 331.1, 500.5)">i</text><text xml:space="preserve" font-family="ThinMintJNL,Thin Mint JNL" font-size="100.0" fill="#000000" transform="matrix(1.00, 0.00, -0.00, -1.00, 344.2, 500.5)">n</text><text xml:space="preserve" font-family="ThinMintJNL,Thin Mint JNL" font-size="100.0" fill="#000000" transform="matrix(1.00, 0.00, -0.00, -1.00, 381.4, 500.5)">g</text><text xml:space="preserve" font-family="ThinMintJNL,Thin Mint JNL" font-size="100.0" fill="#000000" transform="matrix(1.00, 0.00, -0.00, -1.00, 415.4, 500.5)">s</text><text xml:space="preserve" font-family="Georgia,Georgia" font-size="20.0" fill="#EAEAEA" transform="matrix(1.00, 0.00, -0.00, -1.00, 1632.8, 14.8)">s</text><text xml:space="preserve" font-family="Georgia,Georgia" font-size="20.0" fill="#EAEAEA" transform="matrix(1.00, 0.00, -0.00, -1.00, 1641.5, 14.8)">c</text><text xml:space="preserve" font-family="Georgia,Georgia" font-size="20.0" fill="#EAEAEA" transform="matrix(1.00, 0.00, -0.00, -1.00, 1650.5, 14.8)">r</text><text xml:space="preserve" font-family="Georgia,Georgia" font-size="20.0" fill="#EAEAEA" transform="matrix(1.00, 0.00, -0.00, -1.00, 1658.7, 14.8)">e</text><text xml:space="preserve" font-family="Georgia,Georgia" font-size="20.0" fill="#EAEAEA" transform="matrix(1.00, 0.00, -0.00, -1.00, 1668.4, 14.8)">e</text><text xml:space="preserve" font-family="Georgia,Georgia" font-size="20.0" fill="#EAEAEA" transform="matrix(1.00, 0.00, -0.00, -1.00, 1678.1, 14.8)">n</text><text xml:space="preserve" font-family="Georgia,Georgia" font-size="20.0" fill="#EAEAEA" transform="matrix(1.00, 0.00, -0.00, -1.00, 1689.9, 14.8)">c</text><text xml:space="preserve" font-family="Georgia,Georgia" font-size="20.0" fill="#EAEAEA" transform="matrix(1.00, 0.00, -0.00, -1.00, 1699.0, 14.8)">a</text><text xml:space="preserve" font-family="Georgia,Georgia" font-size="20.0" fill="#EAEAEA" transform="matrix(1.00, 0.00, -0.00, -1.00, 1709.1, 14.8)">s</text><text xml:space="preserve" font-family="Georgia,Georgia" font-size="20.0" fill="#EAEAEA" transform="matrix(1.00, 0.00, -0.00, -1.00, 1717.7, 14.8)">t</text><text xml:space="preserve" font-family="Georgia,Georgia" font-size="20.0" fill="#EAEAEA" transform="matrix(1.00, 0.00, -0.00, -1.00, 1724.6, 14.8)"> </text><text xml:space="preserve" font-family="Georgia,Georgia" font-size="20.0" fill="#EAEAEA" transform="matrix(1.00, 0.00, -0.00, -1.00, 1729.4, 14.8)">b</text><text xml:space="preserve" font-family="Georgia,Georgia" font-size="20.0" fill="#EAEAEA" transform="matrix(1.00, 0.00, -0.00, -1.00, 1740.6, 14.8)">y</text><text xml:space="preserve" font-family="Georgia,Georgia" font-size="20.0" fill="#EAEAEA" transform="matrix(1.00, 0.00, -0.00, -1.00, 1750.5, 14.8)"> </text><text xml:space="preserve" font-family="Georgia,Georgia" font-size="20.0" fill="#212121" transform="matrix(1.00, 0.00, -0.00, -1.00, 1755.3, 14.8)">@</text><text xml:space="preserve" font-family="Georgia,Georgia" font-size="20.0" fill="#212121" transform="matrix(1.00, 0.00, -0.00, -1.00, 1773.9, 14.8)">t</text><text xml:space="preserve" font-family="Georgia,Georgia" font-size="20.0" fill="#212121" transform="matrix(1.00, 0.00, -0.00, -1.00, 1780.8, 14.8)">h</text><text xml:space="preserve" font-family="Georgia,Georgia" font-size="20.0" fill="#212121" transform="matrix(1.00, 0.00, -0.00, -1.00, 1792.4, 14.8)">a</text><text xml:space="preserve" font-family="Georgia,Georgia" font-size="20.0" fill="#212121" transform="matrix(1.00, 0.00, -0.00, -1.00, 1802.5, 14.8)">t</text><text xml:space="preserve" font-family="Georgia,Georgia" font-size="20.0" fill="#212121" transform="matrix(1.00, 0.00, -0.00, -1.00, 1809.4, 14.8)">p</text><text xml:space="preserve" font-family="Georgia,Georgia" font-size="20.0" fill="#212121" transform="matrix(1.00, 0.00, -0.00, -1.00, 1820.8, 14.8)">a</text><text xml:space="preserve" font-family="Georgia,Georgia" font-size="20.0" fill="#212121" transform="matrix(1.00, 0.00, -0.00, -1.00, 1830.9, 14.8)">t</text><text xml:space="preserve" font-family="Georgia,Georgia" font-size="20.0" fill="#212121" transform="matrix(1.00, 0.00, -0.00, -1.00, 1837.8, 14.8)">r</text><text xml:space="preserve" font-family="Georgia,Georgia" font-size="20.0" fill="#212121" transform="matrix(1.00, 0.00, -0.00, -1.00, 1846.0, 14.8)">i</text><text xml:space="preserve" font-family="Georgia,Georgia" font-size="20.0" fill="#212121" transform="matrix(1.00, 0.00, -0.00, -1.00, 1851.9, 14.8)">c</text><text xml:space="preserve" font-family="Georgia,Georgia" font-size="20.0" fill="#212121" transform="matrix(1.00, 0.00, -0.00, -1.00, 1860.9, 14.8)">k</text><text xml:space="preserve" font-family="Georgia,Georgia" font-size="20.0" fill="#212121" transform="matrix(1.00, 0.00, -0.00, -1.00, 1871.6, 14.8)">g</text><text xml:space="preserve" font-family="Georgia,Georgia" font-size="20.0" fill="#212121" transform="matrix(1.00, 0.00, -0.00, -1.00, 1881.8, 14.8)">u</text><text xml:space="preserve" font-family="Georgia,Georgia" font-size="20.0" fill="#212121" transform="matrix(1.00, 0.00, -0.00, -1.00, 1893.3, 14.8)">y</text></g></svg>