<?xml version="1.0" encoding="UTF-8" standalone="no"?><svg xmlns="http://www.w3.org/2000/svg" xmlns:xlink="http://www.w3.org/1999/xlink" clip-rule="evenodd" stroke-miterlimit="10" viewBox="0 0 1920 1080"><desc>SVG generated by Keynote</desc><defs></defs><g transform="matrix(1.00, 0.00, -0.00, -1.00, 0.0, 1080.0)"><path d="M 0.0 1080.0 L 1920.0 1080.0 L 1920.0 0.0 L 0.0 0.0 Z M 0.0 1080.0 " fill="#212121"></path><text xml:space="preserve" font-family="ThinMintJNL,Thin Mint JNL" font-size="226.8" fill="#EAEAEA" transform="matrix(1.00, 0.00, -0.00, -1.00, 147.4, 450.4)">J</text><text xml:space="preserve" font-family="ThinMintJNL,Thin Mint JNL" font-size="226.8" fill="#EAEAEA" transform="matrix(1.00, 0.00, -0.00, -1.00, 220.2, 450.4)">a</text><text xml:space="preserve" font-family="ThinMintJNL,Thin Mint JNL" font-size="226.8" fill="#EAEAEA" transform="matrix(1.00, 0.00, -0.00, -1.00, 297.5, 450.4)">v</text><text xml:space="preserve" font-family="ThinMintJNL,Thin Mint JNL" font-size="226.8" fill="#EAEAEA" transform="matrix(1.00, 0.00, -0.00, -1.00, 366.9, 450.4)">a</text><text xml:space="preserve" font-family="ThinMintJNL,Thin Mint JNL" font-size="226.8" fill="#EAEAEA" transform="matrix(1.00, 0.00, -0.00, -1.00, 444.3, 450.4)">S</text><text xml:space="preserve" font-family="ThinMintJNL,Thin Mint JNL" font-size="226.8" fill="#EAEAEA" transform="matrix(1.00, 0.00, -0.00, -1.00, 521.8, 450.4)">c</text><text xml:space="preserve" font-family="ThinMintJNL,Thin Mint JNL" font-size="226.8" fill="#EAEAEA" transform="matrix(1.00, 0.00, -0.00, -1.00, 598.9, 450.4)">r</text><text xml:space="preserve" font-family="ThinMintJNL,Thin Mint JNL" font-size="226.8" fill="#EAEAEA" transform="matrix(1.00, 0.00, -0.00, -1.00, 677.9, 450.4)">i</text><text xml:space="preserve" font-family="ThinMintJNL,Thin Mint JNL" font-size="226.8" fill="#EAEAEA" transform="matrix(1.00, 0.00, -0.00, -1.00, 702.6, 450.4)">p</text><text xml:space="preserve" font-family="ThinMintJNL,Thin Mint JNL" font-size="226.8" fill="#EAEAEA" transform="matrix(1.00, 0.00, -0.00, -1.00, 782.2, 450.4)">t</text><text xml:space="preserve" font-family="ThinMintJNL,Thin Mint JNL" font-size="226.8" fill="#EAEAEA" transform="matrix(1.00, 0.00, -0.00, -1.00, 851.1, 450.4)">,</text><text xml:space="preserve" font-family="ThinMintJNL,Thin Mint JNL" font-size="226.8" fill="#EAEAEA" transform="matrix(1.00, 0.00, -0.00, -1.00, 884.2, 450.4)"> </text><text xml:space="preserve" font-family="ThinMintJNL,Thin Mint JNL" font-size="226.8" fill="#EAEAEA" transform="matrix(1.00, 0.00, -0.00, -1.00, 927.3, 450.4)">R</text><text xml:space="preserve" font-family="ThinMintJNL,Thin Mint JNL" font-size="226.8" fill="#EAEAEA" transform="matrix(1.00, 0.00, -0.00, -1.00, 1007.4, 450.4)">o</text><text xml:space="preserve" font-family="ThinMintJNL,Thin Mint JNL" font-size="226.8" fill="#EAEAEA" transform="matrix(1.00, 0.00, -0.00, -1.00, 1084.5, 450.4)">b</text><text xml:space="preserve" font-family="ThinMintJNL,Thin Mint JNL" font-size="226.8" fill="#EAEAEA" transform="matrix(1.00, 0.00, -0.00, -1.00, 1165.0, 450.4)">o</text><text xml:space="preserve" font-family="ThinMintJNL,Thin Mint JNL" font-size="226.8" fill="#EAEAEA" transform="matrix(1.00, 0.00, -0.00, -1.00, 1242.1, 450.4)">t</text><text xml:space="preserve" font-family="ThinMintJNL,Thin Mint JNL" font-size="226.8" fill="#EAEAEA" transform="matrix(1.00, 0.00, -0.00, -1.00, 1311.1, 450.4)">s</text><text xml:space="preserve" font-family="ThinMintJNL,Thin Mint JNL" font-size="226.8" fill="#EAEAEA" transform="matrix(1.00, 0.00, -0.00, -1.00, 1388.7, 450.4)"> </text><text xml:space="preserve" font-family="ThinMintJNL,Thin Mint JNL" font-size="226.8" fill="#EAEAEA" transform="matrix(1.00, 0.00, -0.00, -1.00, 1431.7, 450.4)">&amp;</text><text xml:space="preserve" font-family="ThinMintJNL,Thin Mint JNL" font-size="226.8" fill="#EAEAEA" transform="matrix(1.00, 0.00, -0.00, -1.00, 1508.9, 450.4)"> </text><text xml:space="preserve" font-family="ThinMintJNL,Thin Mint JNL" font-size="226.8" fill="#EAEAEA" transform="matrix(1.00, 0.00, -0.00, -1.00, 1551.9, 450.4)">m</text><text xml:space="preserve" font-family="ThinMintJNL,Thin Mint JNL" font-size="226.8" fill="#EAEAEA" transform="matrix(1.00, 0.00, -0.00, -1.00, 1663.5, 450.4)">e</text><text xml:space="preserve" font-family="ThinMintJNL,Thin Mint JNL" font-size="226.8" fill="#EAEAEA" transform="matrix(1.00, 0.00, -0.00, -1.00, 1740.0, 450.4)">.</text></g></svg>