<?xml version="1.0" encoding="UTF-8" standalone="no"?><svg xmlns="http://www.w3.org/2000/svg" xmlns:xlink="http://www.w3.org/1999/xlink" clip-rule="evenodd" stroke-miterlimit="10" viewBox="0 0 1920 1080"><desc>SVG generated by Keynote</desc><defs></defs><g transform="matrix(1.00, 0.00, -0.00, -1.00, 0.0, 1080.0)"><path d="M 0.0 1080.0 L 1920.0 1080.0 L 1920.0 0.0 L 0.0 0.0 Z M 0.0 1080.0 " fill="#212121"></path><g><clipPath id="clip0x6100004adaa0"><path d="M 768.0 1002.0 L 1116.0 1002.0 L 1116.0 655.0 L 768.0 655.0 Z M 768.2 1002.2 "></path></clipPath><g clip-path="url(#clip0x6100004adaa0)"><g><clipPath id="clip0x6100004aeca0"><path d="M 907.9 657.1 C 873.5 663.8 844.9 679.3 818.8 705.5 C 795.7 728.5 780.6 754.4 772.4 784.9 C 767.7 802.2 766.7 843.8 770.4 862.3 C 777.0 894.7 791.3 923.1 812.8 946.4 C 825.8 960.6 851.6 981.1 854.4 979.4 C 855.2 978.8 856.4 979.5 857.0 981.0 C 858.4 984.8 867.7 988.3 870.5 986.0 C 873.2 983.7 883.8 983.8 885.2 986.0 C 885.7 986.8 885.2 988.7 884.0 990.2 C 882.8 991.6 882.2 993.1 882.6 993.5 C 883.0 993.9 889.6 996.0 897.3 998.2 C 909.3 1001.5 915.7 1002.1 940.5 1002.2 C 975.7 1002.2 992.1 998.8 1018.9 985.7 C 1040.1 975.4 1053.9 965.3 1069.7 948.6 C 1089.6 927.5 1101.9 905.9 1110.6 876.5 C 1115.3 860.8 1115.6 857.7 1115.6 828.9 C 1115.6 804.4 1114.9 795.6 1112.3 785.8 C 1103.8 754.3 1089.8 729.9 1066.4 706.3 C 1042.9 682.5 1017.1 667.4 986.2 659.1 C 970.7 655.0 924.9 653.8 907.9 657.1 "></path></clipPath><g clip-path="url(#clip0x6100004aeca0)"><image xlink:href="../../4F731B9D-A492-4DB0-A462-B05145482DD6/assets/E4E05261907FB703AB07469074004D3E.png" width="462.00" height="438.00" transform="matrix(0.88, 0.00, -0.00, -0.88, 739.7, 1019.1)"></image></g></g></g></g><image xlink:href="../../4F731B9D-A492-4DB0-A462-B05145482DD6/assets/C80E1008C940643338033EAE1FC48AA1.png" width="612.00" height="792.00" transform="matrix(0.30, 0.00, -0.00, -0.30, 850.0, 301.9)"></image><text xml:space="preserve" font-family="ThinMintJNL,Thin Mint JNL" font-size="210.0" fill="#FEFFFF" transform="matrix(1.00, 0.00, -0.00, -1.00, 652.2, 428.0)">S</text><text xml:space="preserve" font-family="ThinMintJNL,Thin Mint JNL" font-size="210.0" fill="#FEFFFF" transform="matrix(1.00, 0.00, -0.00, -1.00, 724.0, 428.0)">a</text><text xml:space="preserve" font-family="ThinMintJNL,Thin Mint JNL" font-size="210.0" fill="#FEFFFF" transform="matrix(1.00, 0.00, -0.00, -1.00, 792.9, 428.0)">r</text><text xml:space="preserve" font-family="ThinMintJNL,Thin Mint JNL" font-size="210.0" fill="#FEFFFF" transform="matrix(1.00, 0.00, -0.00, -1.00, 865.5, 428.0)">a</text><text xml:space="preserve" font-family="ThinMintJNL,Thin Mint JNL" font-size="210.0" fill="#FEFFFF" transform="matrix(1.00, 0.00, -0.00, -1.00, 937.2, 428.0)">h</text><text xml:space="preserve" font-family="ThinMintJNL,Thin Mint JNL" font-size="210.0" fill="#FEFFFF" transform="matrix(1.00, 0.00, -0.00, -1.00, 1015.1, 428.0)"> </text><text xml:space="preserve" font-family="ThinMintJNL,Thin Mint JNL" font-size="210.0" fill="#FEFFFF" transform="matrix(1.00, 0.00, -0.00, -1.00, 1055.0, 428.0)">h</text><text xml:space="preserve" font-family="ThinMintJNL,Thin Mint JNL" font-size="210.0" fill="#FEFFFF" transform="matrix(1.00, 0.00, -0.00, -1.00, 1132.2, 428.0)">u</text><text xml:space="preserve" font-family="ThinMintJNL,Thin Mint JNL" font-size="210.0" fill="#FEFFFF" transform="matrix(1.00, 0.00, -0.00, -1.00, 1203.9, 428.0)">i</text><text xml:space="preserve" font-family="Georgia,Georgia" font-size="50.0" fill="#FEFFFF" transform="matrix(1.00, 0.00, -0.00, -1.00, 642.8, 346.7)">@</text><text xml:space="preserve" font-family="Georgia,Georgia" font-size="50.0" fill="#FEFFFF" transform="matrix(1.00, 0.00, -0.00, -1.00, 689.2, 346.7)">s</text><text xml:space="preserve" font-family="Georgia,Georgia" font-size="50.0" fill="#FEFFFF" transform="matrix(1.00, 0.00, -0.00, -1.00, 710.8, 346.7)">e</text><text xml:space="preserve" font-family="Georgia,Georgia" font-size="50.0" fill="#FEFFFF" transform="matrix(1.00, 0.00, -0.00, -1.00, 735.0, 346.7)">h</text><text xml:space="preserve" font-family="Georgia,Georgia" font-size="50.0" fill="#FEFFFF" transform="matrix(1.00, 0.00, -0.00, -1.00, 764.1, 346.7)">s</text><text xml:space="preserve" font-family="Georgia,Georgia" font-size="50.0" fill="#FEFFFF" transform="matrix(1.00, 0.00, -0.00, -1.00, 785.7, 346.7)">a</text><text xml:space="preserve" font-family="Georgia,Georgia" font-size="50.0" fill="#FEFFFF" transform="matrix(1.00, 0.00, -0.00, -1.00, 810.9, 346.7)">r</text><text xml:space="preserve" font-family="Georgia,Georgia" font-size="50.0" fill="#FEFFFF" transform="matrix(1.00, 0.00, -0.00, -1.00, 831.4, 346.7)">a</text><text xml:space="preserve" font-family="Georgia,Georgia" font-size="50.0" fill="#FEFFFF" transform="matrix(1.00, 0.00, -0.00, -1.00, 856.6, 346.7)">h</text><text xml:space="preserve" font-family="Georgia,Georgia" font-size="50.0" fill="#FEFFFF" transform="matrix(1.00, 0.00, -0.00, -1.00, 885.7, 346.7)"> </text><text xml:space="preserve" font-family="Georgia,Georgia" font-size="50.0" fill="#FEFFFF" transform="matrix(1.00, 0.00, -0.00, -1.00, 897.7, 346.7)">-</text><text xml:space="preserve" font-family="Georgia,Georgia" font-size="50.0" fill="#FEFFFF" transform="matrix(1.00, 0.00, -0.00, -1.00, 916.4, 346.7)"> </text><text xml:space="preserve" font-family="Georgia,Georgia" font-size="50.0" fill="#FEFFFF" transform="matrix(1.00, 0.00, -0.00, -1.00, 928.5, 346.7)">L</text><text xml:space="preserve" font-family="Georgia,Georgia" font-size="50.0" fill="#FEFFFF" transform="matrix(1.00, 0.00, -0.00, -1.00, 958.7, 346.7)">e</text><text xml:space="preserve" font-family="Georgia,Georgia" font-size="50.0" fill="#FEFFFF" transform="matrix(1.00, 0.00, -0.00, -1.00, 982.8, 346.7)">a</text><text xml:space="preserve" font-family="Georgia,Georgia" font-size="50.0" fill="#FEFFFF" transform="matrix(1.00, 0.00, -0.00, -1.00, 1008.0, 346.7)">d</text><text xml:space="preserve" font-family="Georgia,Georgia" font-size="50.0" fill="#FEFFFF" transform="matrix(1.00, 0.00, -0.00, -1.00, 1036.8, 346.7)"> </text><text xml:space="preserve" font-family="Georgia,Georgia" font-size="50.0" fill="#FEFFFF" transform="matrix(1.00, 0.00, -0.00, -1.00, 1048.8, 346.7)">e</text><text xml:space="preserve" font-family="Georgia,Georgia" font-size="50.0" fill="#FEFFFF" transform="matrix(1.00, 0.00, -0.00, -1.00, 1073.0, 346.7)">n</text><text xml:space="preserve" font-family="Georgia,Georgia" font-size="50.0" fill="#FEFFFF" transform="matrix(1.00, 0.00, -0.00, -1.00, 1102.5, 346.7)">g</text><text xml:space="preserve" font-family="Georgia,Georgia" font-size="50.0" fill="#FEFFFF" transform="matrix(1.00, 0.00, -0.00, -1.00, 1128.0, 346.7)">i</text><text xml:space="preserve" font-family="Georgia,Georgia" font-size="50.0" fill="#FEFFFF" transform="matrix(1.00, 0.00, -0.00, -1.00, 1142.7, 346.7)">n</text><text xml:space="preserve" font-family="Georgia,Georgia" font-size="50.0" fill="#FEFFFF" transform="matrix(1.00, 0.00, -0.00, -1.00, 1172.2, 346.7)">e</text><text xml:space="preserve" font-family="Georgia,Georgia" font-size="50.0" fill="#FEFFFF" transform="matrix(1.00, 0.00, -0.00, -1.00, 1196.4, 346.7)">e</text><text xml:space="preserve" font-family="Georgia,Georgia" font-size="50.0" fill="#FEFFFF" transform="matrix(1.00, 0.00, -0.00, -1.00, 1220.6, 346.7)">r</text><image xlink:href="../../4F731B9D-A492-4DB0-A462-B05145482DD6/assets/DB374194CD7C250CE755D403307E1520.png" width="1956.00" height="1983.00" transform="matrix(0.16, 0.00, -0.00, -0.16, 788.2, 984.4)"></image></g></svg>