<?xml version="1.0" encoding="UTF-8" standalone="no"?><svg xmlns="http://www.w3.org/2000/svg" xmlns:xlink="http://www.w3.org/1999/xlink" clip-rule="evenodd" stroke-miterlimit="10" viewBox="0 0 1920 1080"><desc>SVG generated by Keynote</desc><defs></defs><g transform="matrix(1.00, 0.00, -0.00, -1.00, 0.0, 1080.0)"><path d="M 0.0 1080.0 L 1920.0 1080.0 L 1920.0 0.0 L 0.0 0.0 Z M 0.0 1080.0 " fill="#212121"></path><text xml:space="preserve" font-family="ThinMintJNL,Thin Mint JNL" font-size="280.0" fill="#EAEAEA" transform="matrix(1.00, 0.00, -0.00, -1.00, 750.4, 429.0)">Y</text><text xml:space="preserve" font-family="ThinMintJNL,Thin Mint JNL" font-size="280.0" fill="#EAEAEA" transform="matrix(1.00, 0.00, -0.00, -1.00, 834.7, 429.0)">e</text><text xml:space="preserve" font-family="ThinMintJNL,Thin Mint JNL" font-size="280.0" fill="#EAEAEA" transform="matrix(1.00, 0.00, -0.00, -1.00, 929.9, 429.0)">a</text><text xml:space="preserve" font-family="ThinMintJNL,Thin Mint JNL" font-size="280.0" fill="#EAEAEA" transform="matrix(1.00, 0.00, -0.00, -1.00, 1025.4, 429.0)">h</text><text xml:space="preserve" font-family="ThinMintJNL,Thin Mint JNL" font-size="280.0" fill="#EAEAEA" transform="matrix(1.00, 0.00, -0.00, -1.00, 1129.3, 429.0)">!</text><text xml:space="preserve" font-family="Georgia,Georgia" font-size="50.0" fill="#EAEAEA" transform="matrix(1.00, 0.00, -0.00, -1.00, 196.8, 868.6)">R</text><text xml:space="preserve" font-family="Georgia,Georgia" font-size="50.0" fill="#EAEAEA" transform="matrix(1.00, 0.00, -0.00, -1.00, 231.9, 868.6)">a</text><text xml:space="preserve" font-family="Georgia,Georgia" font-size="50.0" fill="#EAEAEA" transform="matrix(1.00, 0.00, -0.00, -1.00, 257.1, 868.6)">s</text><text xml:space="preserve" font-family="Georgia,Georgia" font-size="50.0" fill="#EAEAEA" transform="matrix(1.00, 0.00, -0.00, -1.00, 278.7, 868.6)">p</text><text xml:space="preserve" font-family="Georgia,Georgia" font-size="50.0" fill="#EAEAEA" transform="matrix(1.00, 0.00, -0.00, -1.00, 307.3, 868.6)">b</text><text xml:space="preserve" font-family="Georgia,Georgia" font-size="50.0" fill="#EAEAEA" transform="matrix(1.00, 0.00, -0.00, -1.00, 335.2, 868.6)">e</text><text xml:space="preserve" font-family="Georgia,Georgia" font-size="50.0" fill="#EAEAEA" transform="matrix(1.00, 0.00, -0.00, -1.00, 359.5, 868.6)">r</text><text xml:space="preserve" font-family="Georgia,Georgia" font-size="50.0" fill="#EAEAEA" transform="matrix(1.00, 0.00, -0.00, -1.00, 379.9, 868.6)">r</text><text xml:space="preserve" font-family="Georgia,Georgia" font-size="50.0" fill="#EAEAEA" transform="matrix(1.00, 0.00, -0.00, -1.00, 400.4, 868.6)">y</text><text xml:space="preserve" font-family="Georgia,Georgia" font-size="50.0" fill="#EAEAEA" transform="matrix(1.00, 0.00, -0.00, -1.00, 425.0, 868.6)"> </text><text xml:space="preserve" font-family="Georgia,Georgia" font-size="50.0" fill="#EAEAEA" transform="matrix(1.00, 0.00, -0.00, -1.00, 437.1, 868.6)">P</text><text xml:space="preserve" font-family="Georgia,Georgia" font-size="50.0" fill="#EAEAEA" transform="matrix(1.00, 0.00, -0.00, -1.00, 467.6, 868.6)">i</text><text xml:space="preserve" font-family="Georgia,Georgia" font-size="50.0" fill="#EAEAEA" transform="matrix(1.00, 0.00, -0.00, -1.00, 1409.5, 868.6)">A</text><text xml:space="preserve" font-family="Georgia,Georgia" font-size="50.0" fill="#EAEAEA" transform="matrix(1.00, 0.00, -0.00, -1.00, 1443.0, 868.6)">r</text><text xml:space="preserve" font-family="Georgia,Georgia" font-size="50.0" fill="#EAEAEA" transform="matrix(1.00, 0.00, -0.00, -1.00, 1463.5, 868.6)">d</text><text xml:space="preserve" font-family="Georgia,Georgia" font-size="50.0" fill="#EAEAEA" transform="matrix(1.00, 0.00, -0.00, -1.00, 1492.2, 868.6)">u</text><text xml:space="preserve" font-family="Georgia,Georgia" font-size="50.0" fill="#EAEAEA" transform="matrix(1.00, 0.00, -0.00, -1.00, 1521.0, 868.6)">i</text><text xml:space="preserve" font-family="Georgia,Georgia" font-size="50.0" fill="#EAEAEA" transform="matrix(1.00, 0.00, -0.00, -1.00, 1535.6, 868.6)">n</text><text xml:space="preserve" font-family="Georgia,Georgia" font-size="50.0" fill="#EAEAEA" transform="matrix(1.00, 0.00, -0.00, -1.00, 1565.2, 868.6)">o</text><text xml:space="preserve" font-family="Georgia,Georgia" font-size="50.0" fill="#EAEAEA" transform="matrix(1.00, 0.00, -0.00, -1.00, 821.0, 66.5)">J</text><text xml:space="preserve" font-family="Georgia,Georgia" font-size="50.0" fill="#EAEAEA" transform="matrix(1.00, 0.00, -0.00, -1.00, 846.9, 66.5)">o</text><text xml:space="preserve" font-family="Georgia,Georgia" font-size="50.0" fill="#EAEAEA" transform="matrix(1.00, 0.00, -0.00, -1.00, 873.9, 66.5)">h</text><text xml:space="preserve" font-family="Georgia,Georgia" font-size="50.0" fill="#EAEAEA" transform="matrix(1.00, 0.00, -0.00, -1.00, 903.0, 66.5)">n</text><text xml:space="preserve" font-family="Georgia,Georgia" font-size="50.0" fill="#EAEAEA" transform="matrix(1.00, 0.00, -0.00, -1.00, 932.5, 66.5)">n</text><text xml:space="preserve" font-family="Georgia,Georgia" font-size="50.0" fill="#EAEAEA" transform="matrix(1.00, 0.00, -0.00, -1.00, 962.0, 66.5)">y</text><text xml:space="preserve" font-family="Georgia,Georgia" font-size="50.0" fill="#EAEAEA" transform="matrix(1.00, 0.00, -0.00, -1.00, 986.6, 66.5)">-</text><text xml:space="preserve" font-family="Georgia,Georgia" font-size="50.0" fill="#EAEAEA" transform="matrix(1.00, 0.00, -0.00, -1.00, 1005.3, 66.5)">F</text><text xml:space="preserve" font-family="Georgia,Georgia" font-size="50.0" fill="#EAEAEA" transform="matrix(1.00, 0.00, -0.00, -1.00, 1035.3, 66.5)">i</text><text xml:space="preserve" font-family="Georgia,Georgia" font-size="50.0" fill="#EAEAEA" transform="matrix(1.00, 0.00, -0.00, -1.00, 1049.9, 66.5)">v</text><text xml:space="preserve" font-family="Georgia,Georgia" font-size="50.0" fill="#EAEAEA" transform="matrix(1.00, 0.00, -0.00, -1.00, 1074.8, 66.5)">e</text><text xml:space="preserve" font-family="Georgia,Georgia" font-size="50.0" fill="#EAEAEA" transform="matrix(1.00, 0.00, -0.00, -1.00, 1364.3, 176.3)">S</text><text xml:space="preserve" font-family="Georgia,Georgia" font-size="50.0" fill="#EAEAEA" transform="matrix(1.00, 0.00, -0.00, -1.00, 1392.4, 176.3)">o</text><text xml:space="preserve" font-family="Georgia,Georgia" font-size="50.0" fill="#EAEAEA" transform="matrix(1.00, 0.00, -0.00, -1.00, 1419.3, 176.3)">c</text><text xml:space="preserve" font-family="Georgia,Georgia" font-size="50.0" fill="#EAEAEA" transform="matrix(1.00, 0.00, -0.00, -1.00, 1442.0, 176.3)">k</text><text xml:space="preserve" font-family="Georgia,Georgia" font-size="50.0" fill="#EAEAEA" transform="matrix(1.00, 0.00, -0.00, -1.00, 1468.8, 176.3)">e</text><text xml:space="preserve" font-family="Georgia,Georgia" font-size="50.0" fill="#EAEAEA" transform="matrix(1.00, 0.00, -0.00, -1.00, 1493.0, 176.3)">t</text><text xml:space="preserve" font-family="Georgia,Georgia" font-size="50.0" fill="#EAEAEA" transform="matrix(1.00, 0.00, -0.00, -1.00, 1510.3, 176.3)">.</text><text xml:space="preserve" font-family="Georgia,Georgia" font-size="50.0" fill="#EAEAEA" transform="matrix(1.00, 0.00, -0.00, -1.00, 1523.7, 176.3)">i</text><text xml:space="preserve" font-family="Georgia,Georgia" font-size="50.0" fill="#EAEAEA" transform="matrix(1.00, 0.00, -0.00, -1.00, 1538.4, 176.3)">o</text><text xml:space="preserve" font-family="Georgia,Georgia" font-size="50.0" fill="#EAEAEA" transform="matrix(1.00, 0.00, -0.00, -1.00, 312.3, 176.3)">E</text><text xml:space="preserve" font-family="Georgia,Georgia" font-size="50.0" fill="#EAEAEA" transform="matrix(1.00, 0.00, -0.00, -1.00, 345.0, 176.3)">x</text><text xml:space="preserve" font-family="Georgia,Georgia" font-size="50.0" fill="#EAEAEA" transform="matrix(1.00, 0.00, -0.00, -1.00, 370.3, 176.3)">p</text><text xml:space="preserve" font-family="Georgia,Georgia" font-size="50.0" fill="#EAEAEA" transform="matrix(1.00, 0.00, -0.00, -1.00, 398.9, 176.3)">r</text><text xml:space="preserve" font-family="Georgia,Georgia" font-size="50.0" fill="#EAEAEA" transform="matrix(1.00, 0.00, -0.00, -1.00, 419.3, 176.3)">e</text><text xml:space="preserve" font-family="Georgia,Georgia" font-size="50.0" fill="#EAEAEA" transform="matrix(1.00, 0.00, -0.00, -1.00, 443.5, 176.3)">s</text><text xml:space="preserve" font-family="Georgia,Georgia" font-size="50.0" fill="#EAEAEA" transform="matrix(1.00, 0.00, -0.00, -1.00, 465.1, 176.3)">s</text><image xlink:href="../../248128DA-F429-4587-B2AE-8E705513D7C5/assets/6206D0D7DF696B1E641254C2275655FA.png" width="929.00" height="2479.00" transform="matrix(0.07, -0.07, 0.07, 0.07, 1170.6, 697.4)"></image><image xlink:href="../../248128DA-F429-4587-B2AE-8E705513D7C5/assets/6206D0D7DF696B1E641254C2275655FA.png" width="929.00" height="2479.00" transform="matrix(0.07, -0.07, -0.07, -0.07, 666.0, 416.2)"></image><image xlink:href="../../248128DA-F429-4587-B2AE-8E705513D7C5/assets/6206D0D7DF696B1E641254C2275655FA.png" width="929.00" height="2479.00" transform="matrix(0.09, 0.00, -0.00, -0.09, 893.5, 373.4)"></image><image xlink:href="../../248128DA-F429-4587-B2AE-8E705513D7C5/assets/6206D0D7DF696B1E641254C2275655FA.png" width="929.00" height="2479.00" transform="matrix(-0.07, -0.07, -0.07, 0.07, 703.7, 697.4)"></image><image xlink:href="../../248128DA-F429-4587-B2AE-8E705513D7C5/assets/6206D0D7DF696B1E641254C2275655FA.png" width="929.00" height="2479.00" transform="matrix(-0.07, -0.07, 0.07, -0.07, 1208.3, 416.2)"></image></g></svg>