<?xml version="1.0" encoding="UTF-8" standalone="no"?><svg xmlns="http://www.w3.org/2000/svg" xmlns:xlink="http://www.w3.org/1999/xlink" clip-rule="evenodd" stroke-miterlimit="10" viewBox="0 0 1920 1080"><desc>SVG generated by Keynote</desc><defs></defs><g transform="matrix(1.00, 0.00, -0.00, -1.00, 0.0, 1080.0)"><path d="M 0.0 1080.0 L 1920.0 1080.0 L 1920.0 0.0 L 0.0 0.0 Z M 0.0 1080.0 " fill="#212121"></path><text xml:space="preserve" font-family="ThinMintJNL,Thin Mint JNL" font-size="100.0" fill="#EAEAEA" transform="matrix(1.00, 0.00, -0.00, -1.00, 774.6, 910.5)">R</text><text xml:space="preserve" font-family="ThinMintJNL,Thin Mint JNL" font-size="100.0" fill="#EAEAEA" transform="matrix(1.00, 0.00, -0.00, -1.00, 809.9, 910.5)">a</text><text xml:space="preserve" font-family="ThinMintJNL,Thin Mint JNL" font-size="100.0" fill="#EAEAEA" transform="matrix(1.00, 0.00, -0.00, -1.00, 844.0, 910.5)">s</text><text xml:space="preserve" font-family="ThinMintJNL,Thin Mint JNL" font-size="100.0" fill="#EAEAEA" transform="matrix(1.00, 0.00, -0.00, -1.00, 878.2, 910.5)">p</text><text xml:space="preserve" font-family="ThinMintJNL,Thin Mint JNL" font-size="100.0" fill="#EAEAEA" transform="matrix(1.00, 0.00, -0.00, -1.00, 911.8, 910.5)">b</text><text xml:space="preserve" font-family="ThinMintJNL,Thin Mint JNL" font-size="100.0" fill="#EAEAEA" transform="matrix(1.00, 0.00, -0.00, -1.00, 947.3, 910.5)">e</text><text xml:space="preserve" font-family="ThinMintJNL,Thin Mint JNL" font-size="100.0" fill="#EAEAEA" transform="matrix(1.00, 0.00, -0.00, -1.00, 979.9, 910.5)">r</text><text xml:space="preserve" font-family="ThinMintJNL,Thin Mint JNL" font-size="100.0" fill="#EAEAEA" transform="matrix(1.00, 0.00, -0.00, -1.00, 1013.8, 910.5)">r</text><text xml:space="preserve" font-family="ThinMintJNL,Thin Mint JNL" font-size="100.0" fill="#EAEAEA" transform="matrix(1.00, 0.00, -0.00, -1.00, 1049.6, 910.5)">y</text><text xml:space="preserve" font-family="ThinMintJNL,Thin Mint JNL" font-size="100.0" fill="#EAEAEA" transform="matrix(1.00, 0.00, -0.00, -1.00, 1079.7, 910.5)"> </text><text xml:space="preserve" font-family="ThinMintJNL,Thin Mint JNL" font-size="100.0" fill="#EAEAEA" transform="matrix(1.00, 0.00, -0.00, -1.00, 1098.7, 910.5)">p</text><text xml:space="preserve" font-family="ThinMintJNL,Thin Mint JNL" font-size="100.0" fill="#EAEAEA" transform="matrix(1.00, 0.00, -0.00, -1.00, 1132.2, 910.5)">i</text><g><clipPath id="clip0x6000008ad380"><path d="M 743.6 770.2 L 1631.2 770.2 L 1631.2 149.8 L 743.6 149.8 Z M 743.6 770.2 "></path></clipPath><g clip-path="url(#clip0x6000008ad380)"><image xlink:href="1EB56CE5ECD320767A6B196853632526.png" width="1299.00" height="908.00" transform="matrix(0.68, 0.00, -0.00, -0.68, 743.6, 770.2)"></image></g></g><g><clipPath id="clip0x6080006acea0"><path d="M 288.8 56.9 L 858.8 56.9 L 858.8 863.1 L 288.8 863.1 Z M 288.8 56.9 "></path></clipPath><g clip-path="url(#clip0x6080006acea0)"><image xlink:href="3D96E43ED5F1DA3480916939DDA6AB37.png" width="2480.00" height="3508.00" transform="matrix(0.23, 0.00, -0.00, -0.23, 288.8, 863.1)"></image></g></g></g></svg>