<?xml version="1.0" encoding="UTF-8" standalone="no"?><svg xmlns="http://www.w3.org/2000/svg" xmlns:xlink="http://www.w3.org/1999/xlink" clip-rule="evenodd" stroke-miterlimit="10" viewBox="0 0 1920 1080"><desc>SVG generated by Keynote</desc><defs></defs><g transform="matrix(1.00, 0.00, -0.00, -1.00, 0.0, 1080.0)"><path d="M 0.0 1080.0 L 1920.0 1080.0 L 1920.0 0.0 L 0.0 0.0 Z M 0.0 1080.0 " fill="#212121"></path><text xml:space="preserve" font-family="ThinMintJNL,Thin Mint JNL" font-size="280.0" fill="#EAEAEA" transform="matrix(1.00, 0.00, -0.00, -1.00, 574.3, 429.0)">T</text><text xml:space="preserve" font-family="ThinMintJNL,Thin Mint JNL" font-size="280.0" fill="#EAEAEA" transform="matrix(1.00, 0.00, -0.00, -1.00, 659.4, 429.0)">a</text><text xml:space="preserve" font-family="ThinMintJNL,Thin Mint JNL" font-size="280.0" fill="#EAEAEA" transform="matrix(1.00, 0.00, -0.00, -1.00, 751.8, 429.0)">n</text><text xml:space="preserve" font-family="ThinMintJNL,Thin Mint JNL" font-size="280.0" fill="#EAEAEA" transform="matrix(1.00, 0.00, -0.00, -1.00, 847.6, 429.0)">k</text><text xml:space="preserve" font-family="ThinMintJNL,Thin Mint JNL" font-size="280.0" fill="#EAEAEA" transform="matrix(1.00, 0.00, -0.00, -1.00, 941.7, 429.0)"> </text><text xml:space="preserve" font-family="ThinMintJNL,Thin Mint JNL" font-size="280.0" fill="#EAEAEA" transform="matrix(1.00, 0.00, -0.00, -1.00, 994.9, 429.0)">T</text><text xml:space="preserve" font-family="ThinMintJNL,Thin Mint JNL" font-size="280.0" fill="#EAEAEA" transform="matrix(1.00, 0.00, -0.00, -1.00, 1080.0, 429.0)">i</text><text xml:space="preserve" font-family="ThinMintJNL,Thin Mint JNL" font-size="280.0" fill="#EAEAEA" transform="matrix(1.00, 0.00, -0.00, -1.00, 1112.7, 429.0)">m</text><text xml:space="preserve" font-family="ThinMintJNL,Thin Mint JNL" font-size="280.0" fill="#EAEAEA" transform="matrix(1.00, 0.00, -0.00, -1.00, 1250.5, 429.0)">e</text></g></svg>