<?xml version="1.0" encoding="UTF-8" standalone="no"?><svg xmlns="http://www.w3.org/2000/svg" xmlns:xlink="http://www.w3.org/1999/xlink" clip-rule="evenodd" stroke-miterlimit="10" viewBox="0 0 1920 1080"><desc>SVG generated by Keynote</desc><defs></defs><g transform="matrix(1.00, 0.00, -0.00, -1.00, 0.0, 1080.0)"><path d="M 0.0 1080.0 L 1920.0 1080.0 L 1920.0 0.0 L 0.0 0.0 Z M 0.0 1080.0 " fill="#212121"></path><text xml:space="preserve" font-family="Georgia,Georgia" font-size="50.0" fill="#FEFFFF" transform="matrix(1.00, 0.00, -0.00, -1.00, 615.0, 552.5)">T</text><text xml:space="preserve" font-family="Georgia,Georgia" font-size="50.0" fill="#FEFFFF" transform="matrix(1.00, 0.00, -0.00, -1.00, 645.9, 552.5)">h</text><text xml:space="preserve" font-family="Georgia,Georgia" font-size="50.0" fill="#FEFFFF" transform="matrix(1.00, 0.00, -0.00, -1.00, 675.0, 552.5)">i</text><text xml:space="preserve" font-family="Georgia,Georgia" font-size="50.0" fill="#FEFFFF" transform="matrix(1.00, 0.00, -0.00, -1.00, 689.6, 552.5)">s</text><text xml:space="preserve" font-family="Georgia,Georgia" font-size="50.0" fill="#FEFFFF" transform="matrix(1.00, 0.00, -0.00, -1.00, 711.3, 552.5)"> </text><text xml:space="preserve" font-family="Georgia,Georgia" font-size="50.0" fill="#FEFFFF" transform="matrix(1.00, 0.00, -0.00, -1.00, 723.3, 552.5)">s</text><text xml:space="preserve" font-family="Georgia,Georgia" font-size="50.0" fill="#FEFFFF" transform="matrix(1.00, 0.00, -0.00, -1.00, 744.9, 552.5)">l</text><text xml:space="preserve" font-family="Georgia,Georgia" font-size="50.0" fill="#FEFFFF" transform="matrix(1.00, 0.00, -0.00, -1.00, 759.3, 552.5)">i</text><text xml:space="preserve" font-family="Georgia,Georgia" font-size="50.0" fill="#FEFFFF" transform="matrix(1.00, 0.00, -0.00, -1.00, 773.9, 552.5)">d</text><text xml:space="preserve" font-family="Georgia,Georgia" font-size="50.0" fill="#FEFFFF" transform="matrix(1.00, 0.00, -0.00, -1.00, 802.6, 552.5)">e</text><text xml:space="preserve" font-family="Georgia,Georgia" font-size="50.0" fill="#FEFFFF" transform="matrix(1.00, 0.00, -0.00, -1.00, 826.8, 552.5)"> </text><text xml:space="preserve" font-family="Georgia,Georgia" font-size="50.0" fill="#FEFFFF" transform="matrix(1.00, 0.00, -0.00, -1.00, 838.9, 552.5)">i</text><text xml:space="preserve" font-family="Georgia,Georgia" font-size="50.0" fill="#FEFFFF" transform="matrix(1.00, 0.00, -0.00, -1.00, 853.5, 552.5)">s</text><text xml:space="preserve" font-family="Georgia,Georgia" font-size="50.0" fill="#FEFFFF" transform="matrix(1.00, 0.00, -0.00, -1.00, 875.1, 552.5)"> </text><text xml:space="preserve" font-family="Georgia,Georgia" font-size="50.0" fill="#FEFFFF" transform="matrix(1.00, 0.00, -0.00, -1.00, 887.2, 552.5)">i</text><text xml:space="preserve" font-family="Georgia,Georgia" font-size="50.0" fill="#FEFFFF" transform="matrix(1.00, 0.00, -0.00, -1.00, 901.9, 552.5)">n</text><text xml:space="preserve" font-family="Georgia,Georgia" font-size="50.0" fill="#FEFFFF" transform="matrix(1.00, 0.00, -0.00, -1.00, 931.4, 552.5)">t</text><text xml:space="preserve" font-family="Georgia,Georgia" font-size="50.0" fill="#FEFFFF" transform="matrix(1.00, 0.00, -0.00, -1.00, 948.7, 552.5)">e</text><text xml:space="preserve" font-family="Georgia,Georgia" font-size="50.0" fill="#FEFFFF" transform="matrix(1.00, 0.00, -0.00, -1.00, 972.9, 552.5)">n</text><text xml:space="preserve" font-family="Georgia,Georgia" font-size="50.0" fill="#FEFFFF" transform="matrix(1.00, 0.00, -0.00, -1.00, 1002.4, 552.5)">t</text><text xml:space="preserve" font-family="Georgia,Georgia" font-size="50.0" fill="#FEFFFF" transform="matrix(1.00, 0.00, -0.00, -1.00, 1019.7, 552.5)">i</text><text xml:space="preserve" font-family="Georgia,Georgia" font-size="50.0" fill="#FEFFFF" transform="matrix(1.00, 0.00, -0.00, -1.00, 1034.3, 552.5)">o</text><text xml:space="preserve" font-family="Georgia,Georgia" font-size="50.0" fill="#FEFFFF" transform="matrix(1.00, 0.00, -0.00, -1.00, 1061.3, 552.5)">n</text><text xml:space="preserve" font-family="Georgia,Georgia" font-size="50.0" fill="#FEFFFF" transform="matrix(1.00, 0.00, -0.00, -1.00, 1090.8, 552.5)">a</text><text xml:space="preserve" font-family="Georgia,Georgia" font-size="50.0" fill="#FEFFFF" transform="matrix(1.00, 0.00, -0.00, -1.00, 1116.0, 552.5)">l</text><text xml:space="preserve" font-family="Georgia,Georgia" font-size="50.0" fill="#FEFFFF" transform="matrix(1.00, 0.00, -0.00, -1.00, 1130.3, 552.5)">l</text><text xml:space="preserve" font-family="Georgia,Georgia" font-size="50.0" fill="#FEFFFF" transform="matrix(1.00, 0.00, -0.00, -1.00, 1144.6, 552.5)">y</text><text xml:space="preserve" font-family="Georgia,Georgia" font-size="50.0" fill="#FEFFFF" transform="matrix(1.00, 0.00, -0.00, -1.00, 1169.2, 552.5)"> </text><text xml:space="preserve" font-family="Georgia,Georgia" font-size="50.0" fill="#FEFFFF" transform="matrix(1.00, 0.00, -0.00, -1.00, 1181.3, 552.5)">b</text><text xml:space="preserve" font-family="Georgia,Georgia" font-size="50.0" fill="#FEFFFF" transform="matrix(1.00, 0.00, -0.00, -1.00, 1209.3, 552.5)">l</text><text xml:space="preserve" font-family="Georgia,Georgia" font-size="50.0" fill="#FEFFFF" transform="matrix(1.00, 0.00, -0.00, -1.00, 1223.6, 552.5)">a</text><text xml:space="preserve" font-family="Georgia,Georgia" font-size="50.0" fill="#FEFFFF" transform="matrix(1.00, 0.00, -0.00, -1.00, 1248.8, 552.5)">n</text><text xml:space="preserve" font-family="Georgia,Georgia" font-size="50.0" fill="#FEFFFF" transform="matrix(1.00, 0.00, -0.00, -1.00, 1278.3, 552.5)">k</text></g></svg>