<?xml version="1.0" encoding="UTF-8" standalone="no"?><svg xmlns="http://www.w3.org/2000/svg" xmlns:xlink="http://www.w3.org/1999/xlink" clip-rule="evenodd" stroke-miterlimit="10" viewBox="0 0 390 126"><desc>SVG generated by Keynote</desc><defs></defs><g transform="matrix(1.00, 0.00, -0.00, -1.00, 0.0, 126.0)"><text xml:space="preserve" font-family="Georgia,Georgia" font-size="60.0" fill="#EAEAEA" transform="matrix(1.00, 0.00, -0.00, -1.00, -1.2, 82.2)">E</text><text xml:space="preserve" font-family="Georgia,Georgia" font-size="60.0" fill="#EAEAEA" transform="matrix(1.00, 0.00, -0.00, -1.00, 38.0, 82.2)">n</text><text xml:space="preserve" font-family="Georgia,Georgia" font-size="60.0" fill="#EAEAEA" transform="matrix(1.00, 0.00, -0.00, -1.00, 73.4, 82.2)">s</text><text xml:space="preserve" font-family="Georgia,Georgia" font-size="60.0" fill="#EAEAEA" transform="matrix(1.00, 0.00, -0.00, -1.00, 99.3, 82.2)">u</text><text xml:space="preserve" font-family="Georgia,Georgia" font-size="60.0" fill="#EAEAEA" transform="matrix(1.00, 0.00, -0.00, -1.00, 133.9, 82.2)">r</text><text xml:space="preserve" font-family="Georgia,Georgia" font-size="60.0" fill="#EAEAEA" transform="matrix(1.00, 0.00, -0.00, -1.00, 158.4, 82.2)">e</text><text xml:space="preserve" font-family="Georgia,Georgia" font-size="60.0" fill="#EAEAEA" transform="matrix(1.00, 0.00, -0.00, -1.00, 187.4, 82.2)"> </text><text xml:space="preserve" font-family="Georgia,Georgia" font-size="60.0" fill="#EAEAEA" transform="matrix(1.00, 0.00, -0.00, -1.00, 201.9, 82.2)">c</text><text xml:space="preserve" font-family="Georgia,Georgia" font-size="60.0" fill="#EAEAEA" transform="matrix(1.00, 0.00, -0.00, -1.00, 229.2, 82.2)">o</text><text xml:space="preserve" font-family="Georgia,Georgia" font-size="60.0" fill="#EAEAEA" transform="matrix(1.00, 0.00, -0.00, -1.00, 261.5, 82.2)">r</text><text xml:space="preserve" font-family="Georgia,Georgia" font-size="60.0" fill="#EAEAEA" transform="matrix(1.00, 0.00, -0.00, -1.00, 286.1, 82.2)">r</text><text xml:space="preserve" font-family="Georgia,Georgia" font-size="60.0" fill="#EAEAEA" transform="matrix(1.00, 0.00, -0.00, -1.00, 310.6, 82.2)">e</text><text xml:space="preserve" font-family="Georgia,Georgia" font-size="60.0" fill="#EAEAEA" transform="matrix(1.00, 0.00, -0.00, -1.00, 339.6, 82.2)">c</text><text xml:space="preserve" font-family="Georgia,Georgia" font-size="60.0" fill="#EAEAEA" transform="matrix(1.00, 0.00, -0.00, -1.00, 366.9, 82.2)">t</text><text xml:space="preserve" font-family="Georgia,Georgia" font-size="60.0" fill="#EAEAEA" transform="matrix(1.00, 0.00, -0.00, -1.00, 387.6, 82.2)"> </text><text xml:space="preserve" font-family="Georgia,Georgia" font-size="60.0" fill="#EAEAEA" transform="matrix(1.00, 0.00, -0.00, -1.00, 24.3, 14.2)">p</text><text xml:space="preserve" font-family="Georgia,Georgia" font-size="60.0" fill="#EAEAEA" transform="matrix(1.00, 0.00, -0.00, -1.00, 58.6, 14.2)">i</text><text xml:space="preserve" font-family="Georgia,Georgia" font-size="60.0" fill="#EAEAEA" transform="matrix(1.00, 0.00, -0.00, -1.00, 76.2, 14.2)">n</text><text xml:space="preserve" font-family="Georgia,Georgia" font-size="60.0" fill="#EAEAEA" transform="matrix(1.00, 0.00, -0.00, -1.00, 111.6, 14.2)"> </text><text xml:space="preserve" font-family="Georgia,Georgia" font-size="60.0" fill="#EAEAEA" transform="matrix(1.00, 0.00, -0.00, -1.00, 126.1, 14.2)">n</text><text xml:space="preserve" font-family="Georgia,Georgia" font-size="60.0" fill="#EAEAEA" transform="matrix(1.00, 0.00, -0.00, -1.00, 161.6, 14.2)">u</text><text xml:space="preserve" font-family="Georgia,Georgia" font-size="60.0" fill="#EAEAEA" transform="matrix(1.00, 0.00, -0.00, -1.00, 196.1, 14.2)">m</text><text xml:space="preserve" font-family="Georgia,Georgia" font-size="60.0" fill="#EAEAEA" transform="matrix(1.00, 0.00, -0.00, -1.00, 248.9, 14.2)">b</text><text xml:space="preserve" font-family="Georgia,Georgia" font-size="60.0" fill="#EAEAEA" transform="matrix(1.00, 0.00, -0.00, -1.00, 282.5, 14.2)">e</text><text xml:space="preserve" font-family="Georgia,Georgia" font-size="60.0" fill="#EAEAEA" transform="matrix(1.00, 0.00, -0.00, -1.00, 311.6, 14.2)">r</text><text xml:space="preserve" font-family="Georgia,Georgia" font-size="60.0" fill="#EAEAEA" transform="matrix(1.00, 0.00, -0.00, -1.00, 336.1, 14.2)">s</text></g></svg>