<?xml version="1.0" encoding="UTF-8" standalone="no"?><svg xmlns="http://www.w3.org/2000/svg" xmlns:xlink="http://www.w3.org/1999/xlink" clip-rule="evenodd" stroke-miterlimit="10" viewBox="0 0 431 50"><desc>SVG generated by Keynote</desc><defs></defs><g transform="matrix(1.00, 0.00, -0.00, -1.00, 0.0, 50.0)"><text xml:space="preserve" font-family="Georgia,Georgia" font-size="60.0" fill="#EAEAEA" transform="matrix(1.00, 0.00, -0.00, -1.00, -1.3, 3.2)">L</text><text xml:space="preserve" font-family="Georgia,Georgia" font-size="60.0" fill="#EAEAEA" transform="matrix(1.00, 0.00, -0.00, -1.00, 34.9, 3.2)">o</text><text xml:space="preserve" font-family="Georgia,Georgia" font-size="60.0" fill="#EAEAEA" transform="matrix(1.00, 0.00, -0.00, -1.00, 67.3, 3.2)">a</text><text xml:space="preserve" font-family="Georgia,Georgia" font-size="60.0" fill="#EAEAEA" transform="matrix(1.00, 0.00, -0.00, -1.00, 97.5, 3.2)">d</text><text xml:space="preserve" font-family="Georgia,Georgia" font-size="60.0" fill="#EAEAEA" transform="matrix(1.00, 0.00, -0.00, -1.00, 131.9, 3.2)"> </text><text xml:space="preserve" font-family="Georgia,Georgia" font-size="60.0" fill="#EAEAEA" transform="matrix(1.00, 0.00, -0.00, -1.00, 146.4, 3.2)">t</text><text xml:space="preserve" font-family="Georgia,Georgia" font-size="60.0" fill="#EAEAEA" transform="matrix(1.00, 0.00, -0.00, -1.00, 167.2, 3.2)">h</text><text xml:space="preserve" font-family="Georgia,Georgia" font-size="60.0" fill="#EAEAEA" transform="matrix(1.00, 0.00, -0.00, -1.00, 202.1, 3.2)">i</text><text xml:space="preserve" font-family="Georgia,Georgia" font-size="60.0" fill="#EAEAEA" transform="matrix(1.00, 0.00, -0.00, -1.00, 219.7, 3.2)">s</text><text xml:space="preserve" font-family="Georgia,Georgia" font-size="60.0" fill="#EAEAEA" transform="matrix(1.00, 0.00, -0.00, -1.00, 245.6, 3.2)"> </text><text xml:space="preserve" font-family="Georgia,Georgia" font-size="60.0" fill="#EAEAEA" transform="matrix(1.00, 0.00, -0.00, -1.00, 260.1, 3.2)">s</text><text xml:space="preserve" font-family="Georgia,Georgia" font-size="60.0" fill="#EAEAEA" transform="matrix(1.00, 0.00, -0.00, -1.00, 286.0, 3.2)">k</text><text xml:space="preserve" font-family="Georgia,Georgia" font-size="60.0" fill="#EAEAEA" transform="matrix(1.00, 0.00, -0.00, -1.00, 318.1, 3.2)">e</text><text xml:space="preserve" font-family="Georgia,Georgia" font-size="60.0" fill="#EAEAEA" transform="matrix(1.00, 0.00, -0.00, -1.00, 347.1, 3.2)">t</text><text xml:space="preserve" font-family="Georgia,Georgia" font-size="60.0" fill="#EAEAEA" transform="matrix(1.00, 0.00, -0.00, -1.00, 367.9, 3.2)">c</text><text xml:space="preserve" font-family="Georgia,Georgia" font-size="60.0" fill="#EAEAEA" transform="matrix(1.00, 0.00, -0.00, -1.00, 395.1, 3.2)">h</text></g></svg>