<?xml version="1.0" encoding="UTF-8" standalone="no"?><svg xmlns="http://www.w3.org/2000/svg" xmlns:xlink="http://www.w3.org/1999/xlink" clip-rule="evenodd" stroke-miterlimit="10" viewBox="0 0 487 196"><desc>SVG generated by Keynote</desc><defs></defs><g transform="matrix(1.00, 0.00, -0.00, -1.00, 0.0, 196.0)"><text xml:space="preserve" font-family="Georgia,Georgia" font-size="60.0" fill="#EAEAEA" transform="matrix(1.00, 0.00, -0.00, -1.00, 85.9, 149.2)">C</text><text xml:space="preserve" font-family="Georgia,Georgia" font-size="60.0" fill="#EAEAEA" transform="matrix(1.00, 0.00, -0.00, -1.00, 124.4, 149.2)">o</text><text xml:space="preserve" font-family="Georgia,Georgia" font-size="60.0" fill="#EAEAEA" transform="matrix(1.00, 0.00, -0.00, -1.00, 156.8, 149.2)">n</text><text xml:space="preserve" font-family="Georgia,Georgia" font-size="60.0" fill="#EAEAEA" transform="matrix(1.00, 0.00, -0.00, -1.00, 192.2, 149.2)">f</text><text xml:space="preserve" font-family="Georgia,Georgia" font-size="60.0" fill="#EAEAEA" transform="matrix(1.00, 0.00, -0.00, -1.00, 211.7, 149.2)">i</text><text xml:space="preserve" font-family="Georgia,Georgia" font-size="60.0" fill="#EAEAEA" transform="matrix(1.00, 0.00, -0.00, -1.00, 229.3, 149.2)">r</text><text xml:space="preserve" font-family="Georgia,Georgia" font-size="60.0" fill="#EAEAEA" transform="matrix(1.00, 0.00, -0.00, -1.00, 253.9, 149.2)">m</text><text xml:space="preserve" font-family="Georgia,Georgia" font-size="60.0" fill="#EAEAEA" transform="matrix(1.00, 0.00, -0.00, -1.00, 306.7, 149.2)"> </text><text xml:space="preserve" font-family="Georgia,Georgia" font-size="60.0" fill="#EAEAEA" transform="matrix(1.00, 0.00, -0.00, -1.00, 321.2, 149.2)">v</text><text xml:space="preserve" font-family="Georgia,Georgia" font-size="60.0" fill="#EAEAEA" transform="matrix(1.00, 0.00, -0.00, -1.00, 351.0, 149.2)">i</text><text xml:space="preserve" font-family="Georgia,Georgia" font-size="60.0" fill="#EAEAEA" transform="matrix(1.00, 0.00, -0.00, -1.00, 368.6, 149.2)">a</text><text xml:space="preserve" font-family="Georgia,Georgia" font-size="60.0" fill="#EAEAEA" transform="matrix(1.00, 0.00, -0.00, -1.00, 398.8, 149.2)"> </text><text xml:space="preserve" font-family="Georgia,Georgia" font-size="60.0" fill="#EAEAEA" transform="matrix(1.00, 0.00, -0.00, -1.00, -0.0, 81.2)">s</text><text xml:space="preserve" font-family="Georgia,Georgia" font-size="60.0" fill="#EAEAEA" transform="matrix(1.00, 0.00, -0.00, -1.00, 25.9, 81.2)">e</text><text xml:space="preserve" font-family="Georgia,Georgia" font-size="60.0" fill="#EAEAEA" transform="matrix(1.00, 0.00, -0.00, -1.00, 54.9, 81.2)">r</text><text xml:space="preserve" font-family="Georgia,Georgia" font-size="60.0" fill="#EAEAEA" transform="matrix(1.00, 0.00, -0.00, -1.00, 79.5, 81.2)">i</text><text xml:space="preserve" font-family="Georgia,Georgia" font-size="60.0" fill="#EAEAEA" transform="matrix(1.00, 0.00, -0.00, -1.00, 97.1, 81.2)">a</text><text xml:space="preserve" font-family="Georgia,Georgia" font-size="60.0" fill="#EAEAEA" transform="matrix(1.00, 0.00, -0.00, -1.00, 127.3, 81.2)">l</text><text xml:space="preserve" font-family="Georgia,Georgia" font-size="60.0" fill="#EAEAEA" transform="matrix(1.00, 0.00, -0.00, -1.00, 144.5, 81.2)"> </text><text xml:space="preserve" font-family="Georgia,Georgia" font-size="60.0" fill="#EAEAEA" transform="matrix(1.00, 0.00, -0.00, -1.00, 159.0, 81.2)">p</text><text xml:space="preserve" font-family="Georgia,Georgia" font-size="60.0" fill="#EAEAEA" transform="matrix(1.00, 0.00, -0.00, -1.00, 193.3, 81.2)">o</text><text xml:space="preserve" font-family="Georgia,Georgia" font-size="60.0" fill="#EAEAEA" transform="matrix(1.00, 0.00, -0.00, -1.00, 225.6, 81.2)">r</text><text xml:space="preserve" font-family="Georgia,Georgia" font-size="60.0" fill="#EAEAEA" transform="matrix(1.00, 0.00, -0.00, -1.00, 250.2, 81.2)">t</text><text xml:space="preserve" font-family="Georgia,Georgia" font-size="60.0" fill="#EAEAEA" transform="matrix(1.00, 0.00, -0.00, -1.00, 270.9, 81.2)"> </text><text xml:space="preserve" font-family="Georgia,Georgia" font-size="60.0" fill="#EAEAEA" transform="matrix(1.00, 0.00, -0.00, -1.00, 285.4, 81.2)">l</text><text xml:space="preserve" font-family="Georgia,Georgia" font-size="60.0" fill="#EAEAEA" transform="matrix(1.00, 0.00, -0.00, -1.00, 302.6, 81.2)">i</text><text xml:space="preserve" font-family="Georgia,Georgia" font-size="60.0" fill="#EAEAEA" transform="matrix(1.00, 0.00, -0.00, -1.00, 320.1, 81.2)">s</text><text xml:space="preserve" font-family="Georgia,Georgia" font-size="60.0" fill="#EAEAEA" transform="matrix(1.00, 0.00, -0.00, -1.00, 346.1, 81.2)">t</text><text xml:space="preserve" font-family="Georgia,Georgia" font-size="60.0" fill="#EAEAEA" transform="matrix(1.00, 0.00, -0.00, -1.00, 366.8, 81.2)">e</text><text xml:space="preserve" font-family="Georgia,Georgia" font-size="60.0" fill="#EAEAEA" transform="matrix(1.00, 0.00, -0.00, -1.00, 395.8, 81.2)">n</text><text xml:space="preserve" font-family="Georgia,Georgia" font-size="60.0" fill="#EAEAEA" transform="matrix(1.00, 0.00, -0.00, -1.00, 431.3, 81.2)">e</text><text xml:space="preserve" font-family="Georgia,Georgia" font-size="60.0" fill="#EAEAEA" transform="matrix(1.00, 0.00, -0.00, -1.00, 460.3, 81.2)">r</text><text xml:space="preserve" font-family="Georgia,Georgia" font-size="60.0" fill="#EAEAEA" transform="matrix(1.00, 0.00, -0.00, -1.00, 484.8, 81.2)"> </text><text xml:space="preserve" font-family="Georgia,Georgia" font-size="60.0" fill="#EAEAEA" transform="matrix(1.00, 0.00, -0.00, -1.00, 124.9, 13.2)">a</text><text xml:space="preserve" font-family="Georgia,Georgia" font-size="60.0" fill="#EAEAEA" transform="matrix(1.00, 0.00, -0.00, -1.00, 155.2, 13.2)">t</text><text xml:space="preserve" font-family="Georgia,Georgia" font-size="60.0" fill="#EAEAEA" transform="matrix(1.00, 0.00, -0.00, -1.00, 175.9, 13.2)"> </text><text xml:space="preserve" font-family="Georgia,Georgia" font-size="60.0" fill="#EAEAEA" transform="matrix(1.00, 0.00, -0.00, -1.00, 190.3, 13.2)">5</text><text xml:space="preserve" font-family="Georgia,Georgia" font-size="60.0" fill="#EAEAEA" transform="matrix(1.00, 0.00, -0.00, -1.00, 222.0, 13.2)">7</text><text xml:space="preserve" font-family="Georgia,Georgia" font-size="60.0" fill="#EAEAEA" transform="matrix(1.00, 0.00, -0.00, -1.00, 252.2, 13.2)">6</text><text xml:space="preserve" font-family="Georgia,Georgia" font-size="60.0" fill="#EAEAEA" transform="matrix(1.00, 0.00, -0.00, -1.00, 286.2, 13.2)">0</text><text xml:space="preserve" font-family="Georgia,Georgia" font-size="60.0" fill="#EAEAEA" transform="matrix(1.00, 0.00, -0.00, -1.00, 323.0, 13.2)">0</text></g></svg>