<?xml version="1.0" encoding="UTF-8" standalone="no"?><svg xmlns="http://www.w3.org/2000/svg" xmlns:xlink="http://www.w3.org/1999/xlink" clip-rule="evenodd" stroke-miterlimit="10" viewBox="0 0 394 263"><desc>SVG generated by Keynote</desc><defs></defs><g transform="matrix(1.00, 0.00, -0.00, -1.00, 0.0, 263.0)"><text xml:space="preserve" font-family="Georgia,Georgia" font-size="60.0" fill="#EAEAEA" transform="matrix(1.00, 0.00, -0.00, -1.00, 30.2, 216.2)">M</text><text xml:space="preserve" font-family="Georgia,Georgia" font-size="60.0" fill="#EAEAEA" transform="matrix(1.00, 0.00, -0.00, -1.00, 85.8, 216.2)">a</text><text xml:space="preserve" font-family="Georgia,Georgia" font-size="60.0" fill="#EAEAEA" transform="matrix(1.00, 0.00, -0.00, -1.00, 116.1, 216.2)">k</text><text xml:space="preserve" font-family="Georgia,Georgia" font-size="60.0" fill="#EAEAEA" transform="matrix(1.00, 0.00, -0.00, -1.00, 148.2, 216.2)">e</text><text xml:space="preserve" font-family="Georgia,Georgia" font-size="60.0" fill="#EAEAEA" transform="matrix(1.00, 0.00, -0.00, -1.00, 177.2, 216.2)"> </text><text xml:space="preserve" font-family="Georgia,Georgia" font-size="60.0" fill="#EAEAEA" transform="matrix(1.00, 0.00, -0.00, -1.00, 191.7, 216.2)">s</text><text xml:space="preserve" font-family="Georgia,Georgia" font-size="60.0" fill="#EAEAEA" transform="matrix(1.00, 0.00, -0.00, -1.00, 217.6, 216.2)">k</text><text xml:space="preserve" font-family="Georgia,Georgia" font-size="60.0" fill="#EAEAEA" transform="matrix(1.00, 0.00, -0.00, -1.00, 249.7, 216.2)">e</text><text xml:space="preserve" font-family="Georgia,Georgia" font-size="60.0" fill="#EAEAEA" transform="matrix(1.00, 0.00, -0.00, -1.00, 278.8, 216.2)">t</text><text xml:space="preserve" font-family="Georgia,Georgia" font-size="60.0" fill="#EAEAEA" transform="matrix(1.00, 0.00, -0.00, -1.00, 299.5, 216.2)">c</text><text xml:space="preserve" font-family="Georgia,Georgia" font-size="60.0" fill="#EAEAEA" transform="matrix(1.00, 0.00, -0.00, -1.00, 326.8, 216.2)">h</text><text xml:space="preserve" font-family="Georgia,Georgia" font-size="60.0" fill="#EAEAEA" transform="matrix(1.00, 0.00, -0.00, -1.00, 361.7, 216.2)"> </text><text xml:space="preserve" font-family="Georgia,Georgia" font-size="60.0" fill="#EAEAEA" transform="matrix(1.00, 0.00, -0.00, -1.00, 68.4, 148.2)">t</text><text xml:space="preserve" font-family="Georgia,Georgia" font-size="60.0" fill="#EAEAEA" transform="matrix(1.00, 0.00, -0.00, -1.00, 89.2, 148.2)">o</text><text xml:space="preserve" font-family="Georgia,Georgia" font-size="60.0" fill="#EAEAEA" transform="matrix(1.00, 0.00, -0.00, -1.00, 121.5, 148.2)"> </text><text xml:space="preserve" font-family="Georgia,Georgia" font-size="60.0" fill="#EAEAEA" transform="matrix(1.00, 0.00, -0.00, -1.00, 136.0, 148.2)">c</text><text xml:space="preserve" font-family="Georgia,Georgia" font-size="60.0" fill="#EAEAEA" transform="matrix(1.00, 0.00, -0.00, -1.00, 163.3, 148.2)">h</text><text xml:space="preserve" font-family="Georgia,Georgia" font-size="60.0" fill="#EAEAEA" transform="matrix(1.00, 0.00, -0.00, -1.00, 198.2, 148.2)">a</text><text xml:space="preserve" font-family="Georgia,Georgia" font-size="60.0" fill="#EAEAEA" transform="matrix(1.00, 0.00, -0.00, -1.00, 228.4, 148.2)">n</text><text xml:space="preserve" font-family="Georgia,Georgia" font-size="60.0" fill="#EAEAEA" transform="matrix(1.00, 0.00, -0.00, -1.00, 263.8, 148.2)">g</text><text xml:space="preserve" font-family="Georgia,Georgia" font-size="60.0" fill="#EAEAEA" transform="matrix(1.00, 0.00, -0.00, -1.00, 294.4, 148.2)">e</text><text xml:space="preserve" font-family="Georgia,Georgia" font-size="60.0" fill="#EAEAEA" transform="matrix(1.00, 0.00, -0.00, -1.00, 323.4, 148.2)"> </text><text xml:space="preserve" font-family="Georgia,Georgia" font-size="60.0" fill="#EAEAEA" transform="matrix(1.00, 0.00, -0.00, -1.00, -0.6, 80.2)">9</text><text xml:space="preserve" font-family="Georgia,Georgia" font-size="60.0" fill="#EAEAEA" transform="matrix(1.00, 0.00, -0.00, -1.00, 33.4, 80.2)">6</text><text xml:space="preserve" font-family="Georgia,Georgia" font-size="60.0" fill="#EAEAEA" transform="matrix(1.00, 0.00, -0.00, -1.00, 67.3, 80.2)">0</text><text xml:space="preserve" font-family="Georgia,Georgia" font-size="60.0" fill="#EAEAEA" transform="matrix(1.00, 0.00, -0.00, -1.00, 104.1, 80.2)">0</text><text xml:space="preserve" font-family="Georgia,Georgia" font-size="60.0" fill="#EAEAEA" transform="matrix(1.00, 0.00, -0.00, -1.00, 140.9, 80.2)"> </text><text xml:space="preserve" font-family="Georgia,Georgia" font-size="60.0" fill="#EAEAEA" transform="matrix(1.00, 0.00, -0.00, -1.00, 155.4, 80.2)">t</text><text xml:space="preserve" font-family="Georgia,Georgia" font-size="60.0" fill="#EAEAEA" transform="matrix(1.00, 0.00, -0.00, -1.00, 176.1, 80.2)">o</text><text xml:space="preserve" font-family="Georgia,Georgia" font-size="60.0" fill="#EAEAEA" transform="matrix(1.00, 0.00, -0.00, -1.00, 208.5, 80.2)"> </text><text xml:space="preserve" font-family="Georgia,Georgia" font-size="60.0" fill="#EAEAEA" transform="matrix(1.00, 0.00, -0.00, -1.00, 222.9, 80.2)">5</text><text xml:space="preserve" font-family="Georgia,Georgia" font-size="60.0" fill="#EAEAEA" transform="matrix(1.00, 0.00, -0.00, -1.00, 254.6, 80.2)">7</text><text xml:space="preserve" font-family="Georgia,Georgia" font-size="60.0" fill="#EAEAEA" transform="matrix(1.00, 0.00, -0.00, -1.00, 284.8, 80.2)">6</text><text xml:space="preserve" font-family="Georgia,Georgia" font-size="60.0" fill="#EAEAEA" transform="matrix(1.00, 0.00, -0.00, -1.00, 318.8, 80.2)">0</text><text xml:space="preserve" font-family="Georgia,Georgia" font-size="60.0" fill="#EAEAEA" transform="matrix(1.00, 0.00, -0.00, -1.00, 355.6, 80.2)">0</text><text xml:space="preserve" font-family="Georgia,Georgia" font-size="60.0" fill="#EAEAEA" transform="matrix(1.00, 0.00, -0.00, -1.00, 392.4, 80.2)"> </text><text xml:space="preserve" font-family="Georgia,Georgia" font-size="60.0" fill="#EAEAEA" transform="matrix(1.00, 0.00, -0.00, -1.00, 47.5, 12.2)">(</text><text xml:space="preserve" font-family="Georgia,Georgia" font-size="60.0" fill="#EAEAEA" transform="matrix(1.00, 0.00, -0.00, -1.00, 70.0, 12.2)">b</text><text xml:space="preserve" font-family="Georgia,Georgia" font-size="60.0" fill="#EAEAEA" transform="matrix(1.00, 0.00, -0.00, -1.00, 103.6, 12.2)">a</text><text xml:space="preserve" font-family="Georgia,Georgia" font-size="60.0" fill="#EAEAEA" transform="matrix(1.00, 0.00, -0.00, -1.00, 133.9, 12.2)">u</text><text xml:space="preserve" font-family="Georgia,Georgia" font-size="60.0" fill="#EAEAEA" transform="matrix(1.00, 0.00, -0.00, -1.00, 168.4, 12.2)">d</text><text xml:space="preserve" font-family="Georgia,Georgia" font-size="60.0" fill="#EAEAEA" transform="matrix(1.00, 0.00, -0.00, -1.00, 202.8, 12.2)"> </text><text xml:space="preserve" font-family="Georgia,Georgia" font-size="60.0" fill="#EAEAEA" transform="matrix(1.00, 0.00, -0.00, -1.00, 217.3, 12.2)">r</text><text xml:space="preserve" font-family="Georgia,Georgia" font-size="60.0" fill="#EAEAEA" transform="matrix(1.00, 0.00, -0.00, -1.00, 241.9, 12.2)">a</text><text xml:space="preserve" font-family="Georgia,Georgia" font-size="60.0" fill="#EAEAEA" transform="matrix(1.00, 0.00, -0.00, -1.00, 272.1, 12.2)">t</text><text xml:space="preserve" font-family="Georgia,Georgia" font-size="60.0" fill="#EAEAEA" transform="matrix(1.00, 0.00, -0.00, -1.00, 292.8, 12.2)">e</text><text xml:space="preserve" font-family="Georgia,Georgia" font-size="60.0" fill="#EAEAEA" transform="matrix(1.00, 0.00, -0.00, -1.00, 321.9, 12.2)">)</text></g></svg>